<?xml version="1.0" encoding="utf-8"?>
<!-- Generator: Adobe Illustrator 26.3.1, SVG Export Plug-In . SVG Version: 6.00 Build 0)  -->
<svg version="1.1" id="sv" xmlns="http://www.w3.org/2000/svg" xmlns:xlink="http://www.w3.org/1999/xlink" x="0px" y="0px"
	 viewBox="0 0 303.8 259.6" style="enable-background:new 0 0 303.8 259.6;" xml:space="preserve">
<style type="text/css">
	.st0{fill:#EA6F46;}
	.st1{fill:#EDAD6D;}
	.st2{fill:#33384D;}
	.st3{fill:#FFFFFF;}
	.st4{fill:#73C0AE;}
	.st5{fill:#FFAEC1;}
	.st6{fill:#E87485;}
	.st7{fill:#FFC050;}
	.st8{fill:#F5F5FA;}
	.st9{clip-path:url(#SVGID_00000164513357322352387690000002221370064230524564_);fill:#73C0AE;}
	.st10{clip-path:url(#SVGID_00000050656003202055684150000006392040456090061732_);fill:#EDAD6D;}
</style>
<g>
	<path class="st0" d="M217,39.6h-43.9c-3.1,0-5.7-2.6-5.7-5.7V9.3c0-3.1,2.6-5.7,5.7-5.7H217c3.1,0,5.7,2.6,5.7,5.7v24.6
		C222.7,37.1,220.2,39.6,217,39.6z"/>
	<path class="st1" d="M169.4,93.1c4.4-4.6,2-14.1,9.5-49.1c0,0-16.4-3.3-16.4-3.3c-4.7,11.5-8.5,21.7-8.5,21.7
		S161.7,80.8,169.4,93.1z"/>
	<g>
		<path class="st2" d="M192.8,181.1c-4.5-16.3-10.9-54-10.9-54l-29.6-2.7c0-0.6-0.1-0.9-0.1-0.9H123c0,0-4,30.2-5.2,44.4
			c-0.3,3.4-0.6,6.8-3.1,9.2L82.9,213l22.2,22.2c4.6-5.4,26.8-25.7,38.7-39.1c8.3,4.9,32.3,18.3,42,16.9
			C197.6,211.3,197.3,197.4,192.8,181.1z M154.6,168.5l-3-13.8l8.2,16.2L154.6,168.5z"/>
	</g>
	<path class="st3" d="M179.9,185.1c-0.1,0-0.2,0-0.3-0.1l-22.4-15.5c-0.2-0.1-0.3-0.4-0.1-0.7c0.1-0.2,0.4-0.3,0.7-0.1l22.4,15.5
		c0.2,0.1,0.3,0.4,0.1,0.7C180.2,185,180.1,185.1,179.9,185.1z"/>
	<path class="st3" d="M154.4,163.9c-0.2,0-0.4-0.1-0.4-0.3l-8.5-27c-0.1-0.2,0.1-0.5,0.3-0.6c0.2-0.1,0.5,0.1,0.6,0.3l8.5,27
		c0.1,0.2-0.1,0.5-0.3,0.6C154.5,163.9,154.4,163.9,154.4,163.9z"/>
	<g>
		<g>
			<path class="st0" d="M101.2,231.2l-5.5,2c0,0-13.6,19.1-18.3,22.4c-1.1,0.8-2.6-0.1-2.5-1.5l2.2-31c0.2-2.1,1.3-4.1,3.1-5.3
				l4.7-3.5L101.2,231.2z"/>
		</g>
		<path class="st2" d="M77.3,255.6c0.4-0.2,0.7-0.5,1.1-0.8c1.6-3.1,2.3-9.9,2.9-17.4c0.8-10.4,0.5-18.6-1.7-19.3
			c-1.6,1.2-2.5,3-2.7,5l-2.2,31C74.7,255.5,76.2,256.3,77.3,255.6z"/>
		<path class="st3" d="M81.8,251.7c-0.1,0-0.1,0-0.2,0c-0.3-0.1-0.5-0.4-0.3-0.7c1.2-3.4,1.6-6.6,2.5-17.4c1.1-14-2.8-16.1-2.9-16.1
			c-0.3-0.1-0.4-0.5-0.3-0.8c0.1-0.3,0.5-0.4,0.8-0.3c0.2,0.1,4.8,2.2,3.6,17.2c-0.9,11-1.3,14.2-2.5,17.7
			C82.3,251.6,82.1,251.7,81.8,251.7z"/>
	</g>
	<g>
		<g>
			<path class="st0" d="M144.7,186.6l-8.3-0.9c0,0-20.4,4.7-26.1,4.6c-1.4,0-2.1-1.6-1.2-2.7l20-23.8c1.4-1.6,3.5-2.6,5.6-2.5
				l18.7,9.4L144.7,186.6z"/>
		</g>
		<path class="st2" d="M110.3,190.2c0.4,0,0.9,0,1.4,0c3.1-1.5,7.7-6.6,12.6-12.4c6.8-7.9,11.4-14.8,9.9-16.6c-2,0.1-3.8,1-5.1,2.5
			l-20,23.8C108.2,188.6,108.9,190.2,110.3,190.2z"/>
		<path class="st3" d="M116,190.8c-0.2,0-0.4-0.1-0.5-0.3c-0.2-0.3-0.1-0.6,0.2-0.8c3.1-2.1,6.1-5.5,12.8-13.6
			c7.7-9.3,7-14.1,7-14.2c-0.1-0.3,0.2-0.6,0.5-0.7c0.3-0.1,0.6,0.1,0.7,0.5c0,0.2,0.9,5.3-7.2,15.1c-6.8,8.1-9.9,11.7-13,13.8
			C116.2,190.8,116.1,190.8,116,190.8z"/>
	</g>
	<path class="st4" d="M138.3,248.5c-0.4,0-0.8-0.2-1.1-0.5c-0.6-0.6-0.6-1.6,0-2.2c2.3-2.3,1.7-5.4,1-8.9c-0.8-3.8-1.7-8.2,1.9-11.8
		c3.5-3.5,7.9-2.7,11.8-1.9c3.5,0.7,6.6,1.3,8.9-1c0.6-0.6,1.6-0.6,2.2,0c0.6,0.6,0.6,1.6,0,2.2c-3.5,3.5-7.9,2.7-11.8,1.9
		c-3.5-0.7-6.6-1.3-8.9,1c-2.3,2.3-1.7,5.4-1,8.9c0.8,3.8,1.7,8.2-1.9,11.8C139.1,248.3,138.7,248.5,138.3,248.5z"/>
	<path class="st5" d="M210.7,30.9c1.7-5.1,4-4.5,4.8-2.5c0.9,2-2.8,8.5-2.1,9c0.8,0.5,5.3-0.4,5.3-0.4l1.7-2.7l2.7-4.3
		c0.2,3.4,0.9,8.5-1.3,11.4c0.6,2.3-1.4,4.8-3.2,6c-3,2-5.5,5-5.5,5l-10.4-3.2c0,0-0.4-4.7,1.1-8.6C205.4,36.7,209,36,210.7,30.9z"
		/>
	<path class="st5" d="M157.1,39.8c-0.1-1-0.5-11.6-0.6-13.4c0.1-2.3-4.1-0.9-5.6-0.9c-4.2-0.3-8.3,1-8.3,1s0.4,5.2,0,8.7
		c-0.3,2-1.1,3.6-2.1,4.9c-0.6,0.7-1.2,1.3-1.7,1.8l-2,0.1l0.4,10.6H152l-0.3-7l0.1,0C156.2,45.6,157.2,43.2,157.1,39.8z"/>
	<path class="st2" d="M138.3,20c-2.4,0.9-6.4,4-7.2,7.7c-0.9,4.2,1.4,11,5.8,15c0,0.2,7.1-0.6,8.7-2.7c1-1.3,1.8-2.9,2.1-4.9
		c0.2-1.7,0.2-3.8,0.2-5.6c0-1.6,2-3.2,3.8-3.4c1.5-0.2,4.1,0.3,4.9,0.3c0,0,0.4-4.6-5.6-6.6C147.7,18.7,142,18.6,138.3,20z"/>
	<g>
		<path class="st5" d="M147.8,37.9c-1.1,0.7-2.8,0.3-3.8-1c-1-1.3-1-2.9,0.1-3.7c1.1-0.7,2.8-0.3,3.8,1
			C148.9,35.5,148.9,37.2,147.8,37.9z"/>
		<path class="st2" d="M147.7,37.3c-0.2,0-0.5-0.2-0.5-0.4c-0.1-2.1-2.5-2.3-2.6-2.3c-0.3,0-0.4-0.3-0.4-0.5c0-0.3,0.3-0.4,0.5-0.4
			c1.1,0.1,3.3,0.9,3.5,3.2C148.2,37.1,148,37.3,147.7,37.3C147.8,37.3,147.7,37.3,147.7,37.3z"/>
	</g>
	<path class="st2" d="M153.1,30.8c-0.1,0-0.2,0-0.3-0.1c-0.2-0.2-0.2-0.5,0-0.7c0.6-0.6,2.1-1.4,3.4-0.2c0.2,0.2,0.2,0.5,0.1,0.7
		c-0.2,0.2-0.5,0.2-0.7,0.1c-1-0.9-2.1,0.1-2.2,0.2C153.3,30.7,153.2,30.8,153.1,30.8z"/>
	<path class="st5" d="M156.7,30.1l0.1,3.5c0,0,1.8,0.3,2,0.9c0.3,1.1-1.8,2.9-1.8,2.9s-0.9-3.6-0.9-4
		C156.1,32.9,156.7,30.1,156.7,30.1z"/>
	<path class="st2" d="M154.3,32.8c0-0.3,0-0.5,0-0.8c0-0.2,0.2-0.4,0.4-0.4c0,0,0.1,0,0.1,0c0.1,0,0.3,0.1,0.3,0.2
		c0,0.1,0,0.1,0,0.1c0,0.2,0.1,0.5,0.1,0.8c0,0.3,0.1,0.5-0.1,0.7c-0.1,0.1-0.4,0.2-0.5,0.1C154.3,33.3,154.3,33.1,154.3,32.8z"/>
	<path class="st1" d="M197.8,47.9c-5.1,11.3-11.5,20.7-11.5,20.7c-16.4-14.6-19.4-14.5-34.6-16.1c-0.4,0-10.4-1.2-16,0.2
		c-18.5,4.8-19.5,17.6-17.3,27.9c3.6,16.8,3.7,19.5,4.8,26.8c1,6-3.5,24.1-3.5,24.1s53.8,1.1,63.3,0c0,0-8.3-33.7-8.4-35
		c11,10,18.9,7.9,23.1,5.5c7.3-4.1,6.9-9.1,17.2-50.1C214.9,51.9,197.8,47.9,197.8,47.9z"/>
	<path class="st2" d="M175.5,98.3c-0.1,0-0.2,0-0.3-0.1l-12-11.1c-0.2-0.2-0.2-0.5,0-0.7c0.2-0.2,0.5-0.2,0.7,0l12,11.1
		c0.2,0.2,0.2,0.5,0,0.7C175.8,98.3,175.6,98.3,175.5,98.3z"/>
	<g>
		<path class="st6" d="M151.8,45.6l-4.9,0.2c-0.8,0-1.2,1-0.7,1.6c1.3,1.4,3.3,3.6,4.6,5.1h1.3L151.8,45.6z"/>
	</g>
	<polygon class="st0" points="134.5,52.8 135.4,47.6 152.6,47.6 156.5,53 	"/>
	<path class="st2" d="M186.3,69c-0.1,0-0.2,0-0.3-0.1c-15.7-14-19-14.4-32.8-15.8l-1.5-0.2c-0.1,0-12.1-1-17.7,0.5
		c-0.3,0.1-0.5-0.1-0.6-0.3c-0.1-0.3,0.1-0.5,0.3-0.6c5.8-1.5,17.9-0.5,18-0.5l1.5,0.2c14.1,1.5,17.4,1.8,33.3,16.1
		c0.2,0.2,0.2,0.5,0,0.7C186.5,69,186.4,69,186.3,69z"/>
	<path class="st2" d="M196.6,81c-0.1,0-0.3-0.1-0.4-0.2l-10.3-12c-0.2-0.2-0.1-0.5,0.1-0.7c0.2-0.2,0.5-0.1,0.7,0.1l10.3,12
		c0.2,0.2,0.1,0.5-0.1,0.7C196.8,81,196.7,81,196.6,81z"/>
	<path class="st2" d="M218.4,45.2c-0.1,0-0.3-0.1-0.3-0.2c-0.2-0.2-0.2-0.5,0-0.7c0.9-0.8,3.3-3.2,3.9-4c0.1-0.2,0.4-0.3,0.6-0.2
		c0.2,0.1,0.3,0.4,0.2,0.6c-0.7,1.2-3.9,4.1-4,4.2C218.6,45.2,218.5,45.2,218.4,45.2z"/>
	<path class="st5" d="M165.2,41.1c0,0-2.6-6.4-2.8-8.2c-0.5-3.6,0.9-5.9,1.5-10c0.6-4,4.7-2.9,3.9,1c-0.7,3.4,0.4,6.8,0.9,6.9
		s7.2,5.4,6,12.2L165.2,41.1z"/>
	<path class="st4" d="M233.2,81.9c0,1.9-1.6,3.5-3.5,3.5c-1.9,0-3.5-1.6-3.5-3.5c0-1.9,1.6-3.5,3.5-3.5
		C231.6,78.3,233.2,79.9,233.2,81.9z"/>
	<path class="st7" d="M236.7,198.5c0,1.9-1.6,3.5-3.5,3.5c-1.9,0-3.5-1.6-3.5-3.5c0-1.9,1.6-3.5,3.5-3.5
		C235.1,195,236.7,196.6,236.7,198.5z"/>
	<path class="st3" d="M136.4,186.2c-0.1,0-0.2,0-0.3-0.1c-0.3-0.2-0.3-0.5-0.1-0.8l2.6-3.7c0.2-0.3,0.5-0.3,0.8-0.1
		c0.3,0.2,0.3,0.5,0.1,0.8l-2.6,3.7C136.7,186.2,136.5,186.2,136.4,186.2z"/>
	<path class="st3" d="M95.7,233.8c-0.2,0-0.3-0.1-0.5-0.2l-3-4c-0.2-0.3-0.1-0.6,0.1-0.8c0.3-0.2,0.6-0.1,0.8,0.1l3,4
		c0.2,0.3,0.1,0.6-0.1,0.8C95.9,233.7,95.8,233.8,95.7,233.8z"/>
	<g>
		<path class="st2" d="M81.5,108.6c-0.2,0.3-0.5,0.3-0.8,0.1c-0.2-0.2-0.3-0.5-0.2-0.8c0.2-0.3,0.5-0.3,0.8-0.2
			C81.6,108,81.7,108.3,81.5,108.6z"/>
	</g>
	<g>
		<path class="st2" d="M109.4,97.4c-0.1,0.1-0.3,0.2-0.4,0.2c-0.1,0-0.1,0-0.2,0c-0.1,0-0.1-0.1-0.2-0.1c-0.2-0.2-0.2-0.6,0-0.8
			c0.2-0.2,0.6-0.2,0.8,0c0.1,0.1,0.1,0.1,0.1,0.2c0,0.1,0,0.1,0,0.2C109.5,97.2,109.5,97.3,109.4,97.4z"/>
	</g>
	<g>
		<path class="st2" d="M99.8,116.4c-0.1,0.1-0.3,0.1-0.4,0.1c-0.1,0-0.3-0.1-0.4-0.2c-0.2-0.2-0.1-0.6,0.1-0.8
			c0.3-0.2,0.6-0.1,0.8,0.1c0.1,0.1,0.1,0.3,0.1,0.4C100,116.2,99.9,116.3,99.8,116.4z"/>
	</g>
	<g>
		<path class="st2" d="M116.2,107.7c-0.3,0.1-0.6,0-0.7-0.3c-0.1-0.3,0-0.6,0.3-0.7c0.3-0.1,0.6,0,0.7,0.3
			C116.6,107.3,116.5,107.6,116.2,107.7z"/>
	</g>
	<g>
		<g>
			<path class="st2" d="M225.1,210.4c0.2-0.3,0.5-0.3,0.8-0.1c0.2,0.2,0.3,0.5,0.2,0.8c-0.2,0.3-0.5,0.3-0.8,0.2
				C225,211,224.9,210.7,225.1,210.4z"/>
		</g>
		<g>
			<path class="st2" d="M213.7,188.4c0.1-0.1,0.3-0.2,0.4-0.2c0.1,0,0.1,0,0.2,0c0.1,0,0.1,0.1,0.2,0.1c0.2,0.2,0.2,0.6,0,0.8
				c-0.2,0.2-0.6,0.2-0.8,0c-0.1-0.1-0.1-0.1-0.1-0.2c0-0.1,0-0.1,0-0.2C213.6,188.7,213.6,188.5,213.7,188.4z"/>
		</g>
		<g>
			<path class="st2" d="M237.6,177.3c0.2-0.2,0.5-0.3,0.8-0.3c0.1,0,0.3,0,0.4,0.1c0.1,0.1,0.2,0.1,0.3,0.2c0.2,0.2,0.3,0.5,0.3,0.8
				c0,0.3-0.1,0.5-0.3,0.8c-0.2,0.2-0.5,0.3-0.8,0.3c-0.3,0-0.6-0.1-0.8-0.4c-0.1-0.1-0.2-0.2-0.2-0.4c0-0.1-0.1-0.3-0.1-0.4
				C237.3,177.7,237.4,177.5,237.6,177.3z"/>
		</g>
	</g>
	<g>
		<path class="st2" d="M94.6,89.7c-0.2,0.2-0.4,0.4-0.7,0.4c-0.3,0-0.6,0-0.8-0.2c-0.2-0.2-0.4-0.4-0.4-0.7c-0.1-0.3,0-0.6,0.1-0.8
			c0.2-0.2,0.4-0.4,0.7-0.5c0.3-0.1,0.6,0,0.8,0.2c0.3,0.2,0.4,0.4,0.5,0.7C94.9,89.2,94.8,89.5,94.6,89.7z"/>
	</g>
	<g>
		<path class="st2" d="M108.9,81.1c-0.3,0.1-0.6,0.2-0.8,0.1c-0.3-0.1-0.5-0.2-0.6-0.5c-0.1-0.2-0.2-0.5-0.1-0.8
			c0.1-0.3,0.2-0.5,0.5-0.7c0.2-0.2,0.5-0.2,0.8-0.1c0.3,0.1,0.5,0.2,0.7,0.5c0.2,0.3,0.2,0.6,0.1,0.8
			C109.4,80.7,109.2,81,108.9,81.1z"/>
	</g>
	<g>
		<path class="st2" d="M87.9,122.4c-0.4,0.2-0.8,0.2-1.2,0.1c-0.2-0.1-0.4-0.1-0.5-0.3c-0.2-0.1-0.3-0.3-0.4-0.4
			c-0.1-0.1-0.1-0.2-0.1-0.3c0-0.1-0.1-0.2-0.1-0.3c0-0.2,0-0.4,0-0.6c0.1-0.4,0.3-0.8,0.7-1c0.4-0.3,0.8-0.3,1.2-0.2
			c0.2,0.1,0.4,0.1,0.6,0.3c0.1,0.1,0.2,0.1,0.3,0.2c0.1,0.1,0.1,0.2,0.2,0.3c0.1,0.2,0.2,0.4,0.2,0.7c0,0.2,0,0.4,0,0.6
			C88.5,121.9,88.3,122.2,87.9,122.4z"/>
	</g>
	<path class="st2" d="M166.2,95.3c-0.1,0-0.1,0-0.2,0l-6.2-2.4c-0.2-0.1-0.4-0.4-0.3-0.6c0.1-0.2,0.4-0.4,0.6-0.3l6.2,2.4
		c0.2,0.1,0.4,0.4,0.3,0.6C166.6,95.2,166.4,95.3,166.2,95.3z"/>
	<path class="st2" d="M194.4,72.4c0,0-0.1,0-0.1,0l-4.1-1.2c-0.3-0.1-0.4-0.3-0.3-0.6c0.1-0.3,0.3-0.4,0.6-0.3l4.1,1.2
		c0.3,0.1,0.4,0.3,0.3,0.6C194.8,72.2,194.6,72.4,194.4,72.4z"/>
	<path class="st8" d="M164.5,43.5c0,0.7-0.6,1.2-1.2,1.2c-0.7,0-1.2-0.6-1.2-1.2c0-0.7,0.6-1.2,1.2-1.2
		C163.9,42.2,164.5,42.8,164.5,43.5z"/>
	<path class="st8" d="M212.6,53.8c0,0.7-0.6,1.2-1.2,1.2c-0.7,0-1.2-0.6-1.2-1.2s0.6-1.2,1.2-1.2C212,52.6,212.6,53.1,212.6,53.8z"
		/>
	<path class="st2" d="M154.6,40.7c-0.2,0-0.3,0-0.5-0.1c-1.4-0.4-1.4-2-1.2-2.8c0.1-0.3,0.3-0.4,0.6-0.3c0.3,0.1,0.4,0.3,0.3,0.6
		c0,0.1-0.4,1.4,0.5,1.6c0.2,0.1,0.3,0,0.5,0c0.4-0.2,0.7-1,0.7-1.2c0.1-0.3,0.3-0.4,0.6-0.4c0.3,0.1,0.4,0.3,0.4,0.6
		c0,0.1-0.3,1.3-1.2,1.8C155.1,40.6,154.8,40.7,154.6,40.7z"/>
	<path class="st3" d="M189,30.7h14c1.7,0,2.7-1.8,1.9-3.2L197.8,14c-0.8-1.6-3.1-1.5-3.9,0l-6.9,13.4
		C186.3,28.9,187.4,30.7,189,30.7z"/>
	<path class="st3" d="M144.6,197.7c-0.1,0-0.2,0-0.3-0.1l-4.2-3.1c-0.2-0.1-0.2-0.4-0.1-0.6l14.2-25.6c0.1-0.2,0.4-0.3,0.6-0.2
		c0.2,0.1,0.3,0.4,0.2,0.6L141,194l3.8,2.8c0.2,0.2,0.3,0.5,0.1,0.7C144.8,197.6,144.7,197.7,144.6,197.7z"/>
	<g>
		<defs>
			<rect id="SVGID_1_" x="79.5" y="21.9" width="21.4" height="21.4"/>
		</defs>
		<clipPath id="SVGID_00000162327909089908184910000010335672240605529765_">
			<use xlink:href="#SVGID_1_"  style="overflow:visible;"/>
		</clipPath>
		
			<rect x="79.5" y="21.9" style="clip-path:url(#SVGID_00000162327909089908184910000010335672240605529765_);fill:#73C0AE;" width="21.4" height="21.4"/>
	</g>
	<g>
		<defs>
			<polygon id="SVGID_00000121274462821490590760000001769978169724085942_" points="249.3,157.5 217,125.2 249.3,125.2 			"/>
		</defs>
		<use xlink:href="#SVGID_00000121274462821490590760000001769978169724085942_"  style="overflow:visible;fill:#EA6F46;"/>
		<clipPath id="SVGID_00000055689279486392603090000011285164911236470958_">
			<use xlink:href="#SVGID_00000121274462821490590760000001769978169724085942_"  style="overflow:visible;"/>
		</clipPath>
		<polygon style="clip-path:url(#SVGID_00000055689279486392603090000011285164911236470958_);fill:#EDAD6D;" points="249.3,157.5 
			217,125.2 249.3,125.2 		"/>
	</g>
	<path class="st2" d="M213.6,158.5c-0.1,0-0.3-0.1-0.3-0.2c-0.2-0.2-0.2-0.5,0-0.7l24-21.9c0.2-0.2,0.5-0.2,0.7,0
		c0.2,0.2,0.2,0.5,0,0.7l-24,21.9C213.8,158.5,213.7,158.5,213.6,158.5z"/>
	<path class="st3" d="M177.2,176.2C177.1,176.2,177.1,176.2,177.2,176.2l-8.6-1.5c-0.3,0-0.4-0.3-0.4-0.5c0-0.3,0.3-0.4,0.5-0.4
		l8.5,1.5c0.3,0,0.4,0.3,0.4,0.5C177.6,176.1,177.4,176.2,177.2,176.2z"/>
	<g>
		<defs>
			<path id="SVGID_00000123414794509510311850000006874772746411455626_" d="M138.3,20c-2.4,0.9-6.4,4-7.2,7.7
				c-0.9,4.2,1.4,11,5.8,15c0,0.2,7.1-0.6,8.7-2.7c1-1.3,1.8-2.9,2.1-4.9c0.2-1.7,0.2-3.8,0.2-5.6c0-1.6,2-3.2,3.8-3.4
				c1.5-0.2,4.1,0.3,4.9,0.3c0,0,0.4-4.6-5.6-6.6C147.7,18.7,142,18.6,138.3,20z"/>
		</defs>
		<clipPath id="SVGID_00000154398828796851865800000003619005394737508533_">
			<use xlink:href="#SVGID_00000123414794509510311850000006874772746411455626_"  style="overflow:visible;"/>
		</clipPath>
	</g>
	<g>
		<defs>
			<path id="SVGID_00000116950195113002483310000003091437387163857064_" d="M197.8,47.9c-5.1,11.3-11.5,20.7-11.5,20.7
				c-16.4-14.6-19.4-14.5-34.6-16.1c-0.4,0-10.4-1.2-16,0.2c-18.5,4.8-19.5,17.6-17.3,27.9c3.6,16.8,3.7,19.5,4.8,26.8
				c1,6-3.5,24.1-3.5,24.1s53.8,1.1,63.3,0c0,0-8.3-33.7-8.4-35c11,10,18.9,7.9,23.1,5.5c7.3-4.1,6.9-9.1,17.2-50.1
				C214.9,51.9,197.8,47.9,197.8,47.9z"/>
		</defs>
		<clipPath id="SVGID_00000159429872424195165910000013923779003001525122_">
			<use xlink:href="#SVGID_00000116950195113002483310000003091437387163857064_"  style="overflow:visible;"/>
		</clipPath>
	</g>
	<g>
		<defs>
			<path id="SVGID_00000079452133710718904610000000495483664900636037_" d="M192.8,181.1c-4.5-16.3-10.9-54-10.9-54l-29.6-2.7
				c0-0.6-0.1-0.9-0.1-0.9H123c0,0-4,30.2-5.2,44.4c-0.3,3.4-0.6,6.8-3.1,9.2L82.9,213l22.2,22.2c4.6-5.4,26.8-25.7,38.7-39.1
				c8.3,4.9,32.3,18.3,42,16.9C197.6,211.3,197.3,197.4,192.8,181.1z M154.6,168.5l-3-13.8l8.2,16.2L154.6,168.5z"/>
		</defs>
		<clipPath id="SVGID_00000170964456490811379940000014968122495223866498_">
			<use xlink:href="#SVGID_00000079452133710718904610000000495483664900636037_"  style="overflow:visible;"/>
		</clipPath>
	</g>
</g>
</svg>
