<?xml version="1.0" encoding="utf-8"?>
<!-- Generator: Adobe Illustrator 26.3.1, SVG Export Plug-In . SVG Version: 6.00 Build 0)  -->
<svg version="1.1" id="sv" xmlns="http://www.w3.org/2000/svg" xmlns:xlink="http://www.w3.org/1999/xlink" x="0px" y="0px"
	 viewBox="0 0 303.8 259.6" style="enable-background:new 0 0 303.8 259.6;" xml:space="preserve">
<style type="text/css">
	.st0{fill:#F5F5FA;}
	.st1{fill:#33384D;}
	.st2{fill:#EDAD6D;}
	.st3{fill:#FFFFFF;}
	.st4{fill:#73C0AE;}
	.st5{fill:#EA6F46;}
	.st6{clip-path:url(#SVGID_00000072265291401874400930000002959697266642933948_);fill:#FFC050;}
	.st7{clip-path:url(#SVGID_00000072265291401874400930000002959697266642933948_);fill:#EDAD6D;}
	.st8{fill:#FFAEC1;}
	.st9{fill-rule:evenodd;clip-rule:evenodd;fill:#EA6F46;}
	.st10{fill-rule:evenodd;clip-rule:evenodd;fill:#FFAEC1;}
	.st11{fill:#E87485;}
</style>
<g>
	<path class="st0" d="M148.5,17.4H58c-1.7,0-3,1.4-3,3v36.9c0,1.7,1.4,3,3,3h36.4c1,0,1.9,0.5,2.5,1.3l3.8,5.5c1.2,1.7,3.8,1.7,5,0
		l3.8-5.5c0.6-0.8,1.5-1.3,2.5-1.3h36.4c1.7,0,3-1.4,3-3V20.5C151.6,18.8,150.2,17.4,148.5,17.4z"/>
	<path class="st1" d="M103.2,69c-1.2,0-2.2-0.6-2.9-1.5L96.5,62c-0.5-0.7-1.3-1.1-2.1-1.1H58c-1.9,0-3.5-1.6-3.5-3.5V20.5
		c0-1.9,1.6-3.5,3.5-3.5h90.5c1.9,0,3.5,1.6,3.5,3.5v36.9c0,1.9-1.6,3.5-3.5,3.5h-36.4c-0.8,0-1.6,0.4-2.1,1.1l-3.8,5.5
		C105.5,68.4,104.4,69,103.2,69z M58,17.9c-1.4,0-2.6,1.2-2.6,2.6v36.9c0,1.4,1.2,2.6,2.6,2.6h36.4c1.2,0,2.2,0.6,2.9,1.5l3.8,5.5
		c0.5,0.7,1.3,1.1,2.1,1.1c0.9,0,1.6-0.4,2.1-1.1l3.8-5.5c0.7-0.9,1.7-1.5,2.9-1.5h36.4c1.4,0,2.6-1.2,2.6-2.6V20.5
		c0-1.4-1.2-2.6-2.6-2.6H58z"/>
	<g>
		<path class="st2" d="M132.9,228.8c0,0-10.8,15.8-11,20.7s31.9-13.8,31.9-13.8l-3-7.8L132.9,228.8z"/>
		<path class="st3" d="M122.5,248.7c-0.3,0-0.5-0.1-0.6-0.1c-0.2-0.1-0.4-0.4-0.3-0.6c0.1-0.2,0.4-0.4,0.6-0.3
			c2.2,0.8,19.9-8.3,30.6-14.2c0.2-0.1,0.5,0,0.6,0.2c0.1,0.2,0,0.5-0.2,0.6c-0.1,0-7,3.9-14.3,7.6
			C127.2,247.8,123.7,248.7,122.5,248.7z"/>
		<path class="st3" d="M136.6,232.8c-0.1,0-0.2,0-0.2-0.1l-4.6-2.5c-0.2-0.1-0.3-0.4-0.2-0.6c0.1-0.2,0.4-0.3,0.6-0.2l4.6,2.5
			c0.2,0.1,0.3,0.4,0.2,0.6C136.9,232.7,136.7,232.8,136.6,232.8z"/>
		<path class="st3" d="M134,236.3c-0.1,0-0.2,0-0.2-0.1l-4.1-2.5c-0.2-0.1-0.3-0.4-0.2-0.6c0.1-0.2,0.4-0.3,0.6-0.2l4.1,2.5
			c0.2,0.1,0.3,0.4,0.2,0.6C134.3,236.2,134.1,236.3,134,236.3z"/>
	</g>
	<path class="st1" d="M202.4,138.9c0,0,0.8,7.9,1.1,16.4c0.3,8.5-53.3,13.3-53.3,13.3l6.2,61.3l-37.9,2.5c0,0-5.3-52.3-5.6-63.1
		c-0.5-18.4,0.6-30.3,22.8-31.8c19.1-1.2,36.2-1.1,36.2-1.1L202.4,138.9z"/>
	<rect x="92.2" y="169.8" class="st4" width="141.5" height="42.2"/>
	<g>
		<path class="st2" d="M155.9,234c0,0-8.1,17.3-7.6,22.2c0.5,4.9,29.3-18.7,29.3-18.7l-4.2-7.2L155.9,234z"/>
		<path class="st3" d="M148.6,255.2c-0.1,0-0.2,0-0.3,0c-0.3,0-0.4-0.3-0.4-0.5c0-0.3,0.3-0.4,0.5-0.4c0,0,0.1,0,0.1,0
			c2.7,0,18.4-11.5,27.8-19c0.2-0.2,0.5-0.1,0.7,0.1c0.2,0.2,0.1,0.5-0.1,0.7c-0.1,0-6.3,5-12.9,9.8
			C152.2,254.4,149.5,255.2,148.6,255.2z"/>
		<path class="st3" d="M160.1,237.3c-0.1,0-0.1,0-0.2,0l-5-1.8c-0.2-0.1-0.4-0.4-0.3-0.6c0.1-0.2,0.4-0.4,0.6-0.3l5,1.8
			c0.2,0.1,0.4,0.4,0.3,0.6C160.5,237.2,160.3,237.3,160.1,237.3z"/>
		<path class="st3" d="M158.1,241.2c-0.1,0-0.1,0-0.2,0l-4.5-1.8c-0.2-0.1-0.4-0.4-0.3-0.6c0.1-0.2,0.4-0.4,0.6-0.3l4.5,1.8
			c0.2,0.1,0.4,0.4,0.3,0.6C158.5,241.1,158.3,241.2,158.1,241.2z"/>
	</g>
	<path class="st1" d="M213.6,131.2c0,0,2.1,7.7,3.7,16c1.6,8.3-2.2,24-12.8,22.8l-33.8,0l12.4,58.4l-37.3,8.7
		c0,0-12.8-52.9-14.8-63.5c-3.4-18.1-5.2-27.9,16.5-32.9c18.7-4.3,12.8-2.9,12.8-2.9l7-9.5L213.6,131.2z"/>
	<path class="st3" d="M145.7,237.6c-0.2,0-0.4-0.1-0.5-0.4c-0.1-0.5-12.8-53-14.8-63.5c-1.7-9-3-16.1-1.1-21.6
		c2-5.8,7.6-9.4,18-11.8c5.7-1.3,9.2-2.1,11.1-2.5c1-0.2,1.6-0.4,2-0.5c0.2,0,0.3-0.1,0.5-0.1c0.3,0,0.5,0,0.6,0.3
		c0.1,0.5-0.3,0.6-0.8,0.7l-0.4,0.1c-0.1,0-0.1,0-0.2,0c-1.5,0.3-4.9,1.1-12.6,2.9c-10.1,2.3-15.5,5.8-17.4,11.2
		c-1.8,5.2-0.5,12.3,1.2,21.1c2,10.5,14.6,63,14.8,63.5c0.1,0.3-0.1,0.5-0.3,0.6C145.8,237.5,145.8,237.6,145.7,237.6z"/>
	<g>
		<g>
			<path class="st1" d="M250.8,42.1c-0.2-0.2-0.3-0.6-0.1-0.8c0.2-0.2,0.5-0.3,0.8-0.1c0.2,0.2,0.3,0.6,0.1,0.8
				C251.4,42.3,251,42.3,250.8,42.1z"/>
		</g>
		<g>
			<path class="st1" d="M238.4,59.5c-0.1-0.1-0.1-0.3-0.1-0.4c0-0.1,0-0.1,0.1-0.2c0-0.1,0.1-0.1,0.1-0.2c0.2-0.2,0.6-0.2,0.8,0.1
				c0.2,0.2,0.2,0.6-0.1,0.8c-0.1,0.1-0.1,0.1-0.2,0.1c-0.1,0-0.1,0-0.2,0C238.6,59.7,238.5,59.7,238.4,59.5z"/>
		</g>
		<g>
			<path class="st1" d="M221.8,47.7c-0.1-0.3,0-0.6,0.2-0.8c0.3-0.2,0.6-0.1,0.8,0.2c0.2,0.3,0.1,0.6-0.2,0.8
				C222.3,48.1,222,48,221.8,47.7z"/>
		</g>
		<g>
			<path class="st1" d="M227.5,65.4c-0.1-0.3,0.1-0.6,0.4-0.7c0.3-0.1,0.6,0.1,0.7,0.3c0.1,0.3-0.1,0.6-0.4,0.7
				C227.9,65.8,227.6,65.7,227.5,65.4z"/>
		</g>
		<g>
			<path class="st1" d="M215.1,30.5c0-0.3,0.2-0.6,0.5-0.6c0.3,0,0.6,0.2,0.6,0.5c0.1,0.3-0.2,0.6-0.5,0.6
				C215.4,31,215.1,30.8,215.1,30.5z"/>
		</g>
		<g>
			<path class="st1" d="M236.6,51.6c-0.2-0.2-0.3-0.5-0.3-0.7c0-0.3,0.1-0.5,0.3-0.8c0.2-0.2,0.5-0.3,0.7-0.4c0.3,0,0.6,0,0.8,0.2
				c0.2,0.2,0.4,0.4,0.4,0.7c0,0.3-0.1,0.6-0.3,0.8c-0.2,0.2-0.5,0.4-0.8,0.4C237.1,51.9,236.8,51.9,236.6,51.6z"/>
		</g>
		<g>
			<path class="st1" d="M218,52.6c-0.1-0.3-0.1-0.6,0-0.8c0.1-0.3,0.3-0.5,0.5-0.6c0.3-0.1,0.5-0.1,0.8,0c0.3,0.1,0.5,0.3,0.6,0.5
				c0.1,0.3,0.2,0.6,0.1,0.8c-0.1,0.3-0.3,0.5-0.6,0.6c-0.3,0.1-0.6,0.1-0.9,0C218.3,53,218.1,52.8,218,52.6z"/>
		</g>
	</g>
	<g>
		<g>
			<path class="st1" d="M87.3,128.8c0.2,0.2,0.2,0.6,0,0.8c-0.2,0.2-0.6,0.2-0.8,0c-0.2-0.2-0.2-0.6,0-0.8
				C86.7,128.5,87,128.5,87.3,128.8z"/>
		</g>
		<g>
			<path class="st1" d="M103.8,130c0.1,0.3,0,0.6-0.3,0.7c-0.3,0.1-0.6,0-0.7-0.3c-0.1-0.3,0-0.6,0.3-0.7
				C103.3,129.6,103.6,129.7,103.8,130z"/>
		</g>
		<g>
			<path class="st1" d="M83.8,146.4c0.2,0.2,0.3,0.5,0.4,0.7c0,0.1,0,0.3-0.1,0.4c0,0.1,0,0.1-0.1,0.2c0,0,0,0.1-0.1,0.1
				c0,0,0,0.1-0.1,0.1c-0.2,0.2-0.4,0.3-0.7,0.4c-0.3,0-0.6,0-0.8-0.2c-0.2-0.2-0.4-0.4-0.4-0.7c0-0.3,0.1-0.6,0.3-0.8
				c0,0,0.1-0.1,0.1-0.1c0,0,0.1-0.1,0.1-0.1c0.1,0,0.1-0.1,0.2-0.1c0.1-0.1,0.3-0.1,0.4-0.1C83.3,146.1,83.6,146.2,83.8,146.4z"/>
		</g>
		<g>
			<path class="st1" d="M111.4,125.8c0,0.3-0.1,0.6-0.3,0.8c-0.1,0.1-0.2,0.2-0.3,0.2c-0.1,0.1-0.3,0.1-0.4,0.1
				c-0.3,0-0.6-0.1-0.8-0.3c-0.2-0.2-0.3-0.4-0.4-0.7c0-0.3,0.1-0.6,0.3-0.8c0.2-0.2,0.5-0.3,0.8-0.3c0.2,0,0.3,0,0.4,0.1
				c0.1,0.1,0.3,0.1,0.4,0.2C111.3,125.2,111.4,125.5,111.4,125.8z"/>
		</g>
	</g>
	<path class="st3" d="M170.7,170.5c-0.1,0-0.2,0-0.3-0.1l-9.5-6.7c-0.2-0.1-0.3-0.4-0.1-0.7c0.1-0.2,0.4-0.3,0.7-0.1l9.5,6.7
		c0.2,0.1,0.3,0.4,0.1,0.7C171,170.4,170.8,170.5,170.7,170.5z"/>
	<path class="st4" d="M258.2,150.2c0,1.9-1.6,3.5-3.5,3.5c-1.9,0-3.5-1.6-3.5-3.5s1.6-3.5,3.5-3.5
		C256.6,146.7,258.2,148.3,258.2,150.2z"/>
	<path class="st5" d="M66.9,176.8c0,1.9-1.6,3.5-3.5,3.5c-1.9,0-3.5-1.6-3.5-3.5c0-1.9,1.6-3.5,3.5-3.5
		C65.3,173.3,66.9,174.9,66.9,176.8z"/>
	<g>
		<g>
			<polygon class="st5" points="114.8,29.7 117.4,34.9 123.1,35.8 119,39.8 120,45.5 114.8,42.8 109.7,45.5 110.7,39.8 106.6,35.8 
				112.3,34.9 			"/>
			<polygon class="st2" points="91.9,29.7 94.4,34.9 100.2,35.8 96,39.8 97,45.5 91.9,42.8 86.8,45.5 87.7,39.8 83.6,35.8 
				89.3,34.9 			"/>
			<polygon class="st5" points="68.9,29.7 71.5,34.9 77.2,35.8 73.1,39.8 74,45.5 68.9,42.8 63.8,45.5 64.8,39.8 60.7,35.8 
				66.4,34.9 			"/>
		</g>
		<g>
			<polygon class="st2" points="136,37.7 138.6,42.9 144.3,43.7 140.1,47.7 141.1,53.4 136,50.7 130.9,53.4 131.9,47.7 127.7,43.7 
				133.5,42.9 			"/>
		</g>
	</g>
	<g>
		<g>
			<defs>
				<path id="SVGID_1_" d="M56.5,116.4H80C80,103.5,69.5,93,56.5,93V116.4z"/>
			</defs>
			<clipPath id="SVGID_00000133505438708223686540000008642536261789233332_">
				<use xlink:href="#SVGID_1_"  style="overflow:visible;"/>
			</clipPath>
			<path style="clip-path:url(#SVGID_00000133505438708223686540000008642536261789233332_);fill:#FFC050;" d="M56.5,116.4H80
				C80,103.5,69.5,93,56.5,93V116.4z"/>
			<path style="clip-path:url(#SVGID_00000133505438708223686540000008642536261789233332_);fill:#EDAD6D;" d="M56.5,116.4H80
				C80,103.5,69.5,93,56.5,93V116.4z"/>
		</g>
		<path class="st1" d="M70,105.5c-0.1,0-0.3-0.1-0.3-0.2c-0.2-0.2-0.2-0.5,0-0.7l14.7-13.4c0.2-0.2,0.5-0.2,0.7,0
			c0.2,0.2,0.2,0.5,0,0.7l-14.7,13.4C70.2,105.5,70.1,105.5,70,105.5z"/>
	</g>
	<path class="st8" d="M147.2,66.4c-0.7-5-4.9-8.6-4.7-10.7c0.2-2.1-1.2-5.1-3.8-3.1c-1.5,1.1-1.6,3.7-1.4,5.6
		c-0.7,0-1.3,0.1-1.3,0.1c-0.6-2.2-5.3-1.3-5.3-1.3s1.5-9.3-0.6-9.6c-1.2-0.1-2.5,0.2-3.8,3.3c-0.9,2.3-2,7.1-1.9,9.1
		c0.3,4.7,8.9,12.9,8.9,12.9l1.7,7.7l14.8-1.2C149.8,79.2,147.9,71.4,147.2,66.4z"/>
	<path class="st9" d="M223.8,89.6c-10.8-20.8-24.2-19.1-29.2-19.5c-3-0.2-15,0-15,0c-8.5,0.6-15.3,0.8-23.1,10.2l-0.4-4.8l-26.6,3.4
		l3.2,40.1c-1.8,12.9,9.3,20.9,21.8,14.2c3.6-1.9,5.4-4,5.4-4l0.4,8.6l57.3,1.9l-0.3-4.1c0,0,12,2.7,17.5-6.8
		C240.7,118.7,228.3,98.3,223.8,89.6z"/>
	<path class="st1" d="M139.4,68.3c-0.1,0-0.1,0-0.2,0c-0.7-0.1-1.3-0.4-1.6-1l-0.4-0.5c-0.1-0.2-0.1-0.5,0.1-0.7
		c0.2-0.1,0.5-0.1,0.7,0.1l0.4,0.5c0.2,0.3,0.5,0.5,0.9,0.6c0.4,0,0.7-0.1,1-0.4c1-1.2,1.6-2.6,1.5-3.8c-0.2-1.6-2.8-1.5-2.8-1.5
		c-0.1,0-0.3,0-0.3-0.1c-0.1-0.1-0.1-0.2-0.1-0.4c0.1-2-2-2.4-2.4-2.4c-0.6,0.2-4.8,1.6-6.6,5.9c-0.1,0.2-0.4,0.4-0.6,0.3
		c-0.2-0.1-0.4-0.4-0.3-0.6c2.1-5.1,7.1-6.4,7.3-6.5c0.1,0,0.1,0,0.2,0c1.1,0.1,3.2,0.8,3.4,2.9c1,0.1,3.1,0.5,3.3,2.3
		c0.2,1.4-0.5,3.2-1.7,4.5C140.6,68,140,68.3,139.4,68.3z"/>
	<path class="st1" d="M126.9,61.9c-0.1,0-0.1,0-0.2,0c-0.2-0.1-0.4-0.4-0.3-0.6c1.2-3.1,4-4.6,4.1-4.6c0.2-0.1,0.5,0,0.6,0.2
		c0.1,0.2,0,0.5-0.2,0.6c0,0-2.6,1.4-3.7,4.2C127.2,61.7,127.1,61.9,126.9,61.9z"/>
	<path class="st1" d="M133.4,67.5c0,0-0.1,0-0.1,0c-0.2-0.1-0.4-0.3-0.3-0.6c1.7-5.1,5.7-6.2,5.9-6.2c0.3-0.1,0.5,0.1,0.6,0.3
		c0.1,0.3-0.1,0.5-0.3,0.6c-0.2,0-3.7,1-5.2,5.6C133.8,67.4,133.6,67.5,133.4,67.5z"/>
	<path class="st1" d="M159.9,129.7c-0.3,0-0.5-0.2-0.5-0.5l-1.8-43.4c0-0.3,0.2-0.5,0.5-0.5c0.3,0,0.5,0.2,0.5,0.5l1.8,43.4
		C160.4,129.4,160.2,129.7,159.9,129.7C159.9,129.7,159.9,129.7,159.9,129.7z"/>
	<g>
		<path class="st0" d="M157.9,117.8h13.2c3.1,0,5.4-2.8,4.9-5.8l-4.7-28c-0.4-2.4-2.5-4.1-4.9-4.1h-13.2c-3.1,0-5.4,2.8-4.9,5.8
			l4.7,28C153.4,116.1,155.5,117.8,157.9,117.8z"/>
		<path class="st1" d="M171.1,118.3h-13.2c-2.6,0-4.9-1.9-5.4-4.5l-4.7-28c-0.3-1.6,0.2-3.2,1.2-4.4c1-1.2,2.5-1.9,4.2-1.9h13.2
			c2.6,0,4.9,1.9,5.4,4.5l4.7,28c0.3,1.6-0.2,3.2-1.2,4.4C174.2,117.6,172.7,118.3,171.1,118.3z M153.2,80.3c-1.3,0-2.6,0.6-3.4,1.6
			c-0.9,1-1.2,2.3-1,3.7l4.7,28c0.4,2.2,2.2,3.7,4.4,3.7h13.2c1.3,0,2.6-0.6,3.4-1.6c0.9-1,1.2-2.3,1-3.7l-4.7-28
			c-0.4-2.2-2.2-3.7-4.4-3.7H153.2z"/>
		<path class="st1" d="M159.5,93.4c-1.7,0-3.1-1.4-3.1-3.1c0-1.7,1.4-3.1,3.1-3.1c1.7,0,3.1,1.4,3.1,3.1
			C162.6,92.1,161.2,93.4,159.5,93.4z M159.5,88.2c-1.2,0-2.1,1-2.1,2.1c0,1.2,1,2.1,2.1,2.1c1.2,0,2.1-1,2.1-2.1
			C161.7,89.2,160.7,88.2,159.5,88.2z"/>
	</g>
	<g>
		<path class="st8" d="M184.3,99.9c0,0-1.5-5.6-5.5-7.9c-4-2.2-10.1-5.8-11.4-3.5c-1.1,1.9,1.2,3.7,2,4.5c-2.2-0.6-5.6-1.4-6.2,0.4
			c-0.6,1.8,2,3.6,4.6,5c-2.1-0.7-4.6-1.8-5.4,0.2c-0.7,1.7,1.5,2.9,4.5,4.2c-1.5-0.2-2.7,0-3,1.2c-0.7,3.3,8.4,4.7,8.4,4.7
			s2.4,6.1,9.5,5.2l2.7,1l6.4-13.7L184.3,99.9z"/>
		<path class="st1" d="M178,97.7c-0.1,0-0.1,0-0.2,0l-8.5-4.2c-0.2-0.1-0.3-0.4-0.2-0.6c0.1-0.2,0.4-0.3,0.6-0.2l8.5,4.2
			c0.2,0.1,0.3,0.4,0.2,0.6C178.3,97.6,178.1,97.7,178,97.7z"/>
		<path class="st1" d="M175.3,101.8c-0.1,0-0.1,0-0.2,0l-7.4-2.9c-0.2-0.1-0.4-0.4-0.3-0.6c0.1-0.2,0.4-0.4,0.6-0.3l7.4,2.9
			c0.2,0.1,0.4,0.4,0.3,0.6C175.6,101.7,175.5,101.8,175.3,101.8z"/>
		<path class="st1" d="M173.2,105.7c-0.1,0-0.1,0-0.2,0l-6.4-2.4c-0.2-0.1-0.4-0.4-0.3-0.6c0.1-0.2,0.4-0.4,0.6-0.3l6.4,2.4
			c0.2,0.1,0.4,0.4,0.3,0.6C173.6,105.6,173.4,105.7,173.2,105.7z"/>
		<path class="st1" d="M181.1,106.6c-0.1,0-0.1,0-0.2-0.1c-0.2-0.1-0.3-0.4-0.2-0.6l3.2-6.3c0.1-0.2,0.4-0.3,0.6-0.2
			c0.2,0.1,0.3,0.4,0.2,0.6l-3.2,6.3C181.5,106.5,181.3,106.6,181.1,106.6z"/>
	</g>
	<path class="st1" d="M217.3,136.1c-0.1,0-0.1,0-0.2,0l-34.9-16.4c-0.2-0.1-0.3-0.4-0.2-0.6l10.5-22.6c0.1-0.2,0.4-0.3,0.6-0.2
		l34.3,12.9c0.2,0.1,0.4,0.4,0.3,0.6c-0.1,0.2-0.4,0.4-0.6,0.3l-33.9-12.8L183,119l34.5,16.2c0.2,0.1,0.3,0.4,0.2,0.6
		C217.7,136,217.5,136.1,217.3,136.1z"/>
	<path class="st1" d="M205.4,101.4c-0.3,0-0.5-0.2-0.5-0.5V86.3c0-0.3,0.2-0.5,0.5-0.5c0.3,0,0.5,0.2,0.5,0.5V101
		C205.8,101.2,205.6,101.4,205.4,101.4z"/>
	<path class="st10" d="M183,81.1c7,0.2,15-6.4,19.1-10.4c-3.2-0.6-5.8-0.5-7.5-0.6c-3-0.2-15,0-15,0c-2.5,0.2-5.1,0.4-7.8,0.9
		C171.8,71,173.1,80.8,183,81.1z"/>
	<path class="st1" d="M209.2,91.3c-0.1,0-0.2,0-0.2-0.1c-0.2-0.1-0.3-0.4-0.2-0.6l1.8-3.1c0.1-0.2,0.4-0.3,0.6-0.2
		c0.2,0.1,0.3,0.4,0.2,0.6l-1.8,3.1C209.5,91.2,209.3,91.3,209.2,91.3z"/>
	<g>
		<defs>
			<path id="SVGID_00000070828350147043253100000016399084996718686618_" d="M223.8,89.6c-10.8-20.8-24.2-19.1-29.2-19.5
				c-3-0.2-15,0-15,0c-8.5,0.6-15.3,0.8-23.1,10.2l-0.4-4.8l-26.6,3.4l3.2,40.1c-1.8,12.9,9.3,20.9,21.8,14.2c3.6-1.9,5.4-4,5.4-4
				l0.4,8.6l57.3,1.9l-0.3-4.1c0,0,12,2.7,17.5-6.8C240.7,118.7,228.3,98.3,223.8,89.6z"/>
		</defs>
		<clipPath id="SVGID_00000032619005043726899760000004096951398760140196_">
			<use xlink:href="#SVGID_00000070828350147043253100000016399084996718686618_"  style="overflow:visible;"/>
		</clipPath>
	</g>
	<g>
		<g>
			<path class="st1" d="M199.9,46.6c0.7,7.7-5.1,14.4-12.9,15.1c-7.8,0.7-15.2-9.3-15.3-17c-0.1-6.8,4.2-10.3,12.7-10.7
				C192.3,33.6,199.2,38.9,199.9,46.6z"/>
		</g>
		<path class="st8" d="M195.4,73l-2.9-13c-9.3-0.2-11.1-12-11.2-15.4c0,0-9.6,0.1-9.6,0c0-1.8,0.1,6.1,0,7.3l-0.9,0.3
			c-1.5,0.4-2.3,2.2-1.5,3.5l1.2,2.1c0,4.8,1.8,8.1,7.3,7.3l2,10.6C180,75.9,195.4,73,195.4,73z"/>
		<path class="st11" d="M179.3,72c0.2,0.9,1.4,1,1.8,0.2l3.2-8.4c0.2-0.5-0.3-0.9-0.8-0.7c-1.5,0.7-3.9,1.8-5.6,1.9L179.3,72z"/>
		<path class="st1" d="M174,50.9c0-0.3,0-0.5,0-0.8c0-0.2,0.2-0.4,0.4-0.4c0,0,0.1,0,0.1,0c0.1,0,0.3,0.1,0.3,0.2c0,0.1,0,0.1,0,0.2
			c0,0.3,0,0.5,0,0.8c0,0.3,0,0.5-0.2,0.7c-0.1,0.1-0.4,0.1-0.5,0C174,51.4,174,51.2,174,50.9z"/>
		<path class="st1" d="M176,49.7c-0.2,0-0.3-0.1-0.4-0.3c-0.1-0.2-0.7-1.2-1.9-0.6c-0.2,0.1-0.5,0-0.6-0.2c-0.1-0.2,0-0.5,0.2-0.6
			c1.7-0.8,2.8,0.3,3.1,1c0.1,0.2,0,0.5-0.2,0.6C176.2,49.6,176.1,49.7,176,49.7z"/>
		<g>
			<path class="st8" d="M182.2,55.5c1.1,0.8,2.9,0.3,4-1c1.1-1.3,1.1-3-0.1-3.8c-1.1-0.8-2.9-0.3-4,1
				C181.1,53,181.1,54.7,182.2,55.5z"/>
			<path class="st1" d="M182.3,54.9c-0.3,0-0.5-0.2-0.5-0.5c0.2-2.4,2.4-3.2,3.6-3.3c0.3,0,0.5,0.2,0.5,0.4c0,0.3-0.2,0.5-0.4,0.5
				c-0.1,0-2.6,0.3-2.8,2.5C182.8,54.7,182.6,54.9,182.3,54.9z"/>
		</g>
		<path class="st1" d="M172.9,58c-0.2,0-0.4,0-0.6-0.1c-0.3,0-0.4-0.3-0.4-0.5c0-0.3,0.3-0.4,0.5-0.4c0.6,0.1,1,0,1.2-0.2
			c0.3-0.3,0.3-1,0.3-1.2c0-0.3,0.1-0.5,0.4-0.5c0.3,0,0.5,0.1,0.5,0.4c0,0.1,0.2,1.3-0.6,2C174,57.8,173.5,58,172.9,58z"/>
		<path class="st1" d="M183.8,36.4c-2.4-2.8-5.8-5.8-8-4.2c-1.1,0.9,0.4,2.6,0.4,2.6s-4.4-2.8-6.1-0.4c-1.4,1.8,1.9,4.2,1.9,4.2
			c-3.3-0.4-5.7,3.1-3,5.3c2.6,2.2,12.4,0.8,12.4,0.8l1-1.6C182.3,43.1,185.2,38.1,183.8,36.4z"/>
		<g>
			<defs>
				<path id="SVGID_00000019671923625443103640000005446479290142056107_" d="M199.9,46.6c0.7,7.7-5.1,14.4-12.9,15.1
					c-7.8,0.7-15.2-9.3-15.3-17c-0.1-6.8,4.2-10.3,12.7-10.7C192.3,33.6,199.2,38.9,199.9,46.6z"/>
			</defs>
			<clipPath id="SVGID_00000019675754777468772340000015186810254844420249_">
				<use xlink:href="#SVGID_00000019671923625443103640000005446479290142056107_"  style="overflow:visible;"/>
			</clipPath>
		</g>
	</g>
	<g>
		<defs>
			
				<rect id="SVGID_00000137837116713241043020000015023415282187236239_" x="92.2" y="169.8" transform="matrix(-1 -1.224647e-16 1.224647e-16 -1 325.8874 381.9084)" width="141.5" height="42.2"/>
		</defs>
		<clipPath id="SVGID_00000115505951432563856780000018041870898097905316_">
			<use xlink:href="#SVGID_00000137837116713241043020000015023415282187236239_"  style="overflow:visible;"/>
		</clipPath>
	</g>
</g>
</svg>
