<?xml version="1.0" encoding="utf-8"?>
<!-- Generator: Adobe Illustrator 26.3.1, SVG Export Plug-In . SVG Version: 6.00 Build 0)  -->
<svg version="1.1" id="sv" xmlns="http://www.w3.org/2000/svg" xmlns:xlink="http://www.w3.org/1999/xlink" x="0px" y="0px"
	 viewBox="0 0 303.8 259.6" style="enable-background:new 0 0 303.8 259.6;" xml:space="preserve">
<style type="text/css">
	.st0{fill:#EDAD6D;}
	.st1{fill:#FFFFFF;}
	.st2{fill:#EA6F46;}
	.st3{fill:#33384D;}
	.st4{fill:#FFAEC1;}
	.st5{fill-rule:evenodd;clip-rule:evenodd;fill:#33384D;}
	.st6{fill-rule:evenodd;clip-rule:evenodd;fill:#EA6F46;}
	.st7{fill:#E87485;}
	.st8{fill-rule:evenodd;clip-rule:evenodd;fill:#F5F5FA;}
	.st9{fill:#73C0AE;}
	.st10{clip-path:url(#SVGID_00000134222559777212558820000003496612359713735605_);fill:#73C0AE;}
</style>
<g>
	<path class="st0" d="M234.9,30.7c0,12.3-2.1,30.4-27.1,41.8C181,60.7,180.7,43,180.7,30.7l0-14.8l27.1-10.8l27.1,10.8L234.9,30.7z"
		/>
	<polygon class="st1" points="203.9,54.8 188.1,36.9 193.9,32.6 203.8,43.7 221.2,23.1 227.1,27.3 	"/>
	<circle class="st2" cx="129" cy="25.2" r="3.5"/>
	<path class="st0" d="M246.5,117.7c0,1.9-1.6,3.5-3.5,3.5c-1.9,0-3.5-1.6-3.5-3.5c0-1.9,1.6-3.5,3.5-3.5
		C245,114.2,246.5,115.7,246.5,117.7z"/>
	<g>
		<g>
			<path class="st3" d="M84.5,66.8c0.3,0,0.5,0.3,0.5,0.6c0,0.3-0.3,0.5-0.6,0.5c-0.3,0-0.5-0.3-0.5-0.6C84,67,84.2,66.8,84.5,66.8z
				"/>
		</g>
		<g>
			<path class="st3" d="M84.8,45.4c0.1,0,0.3,0.1,0.3,0.3c0,0.1,0.1,0.1,0.1,0.2c0,0.1,0,0.1,0,0.2c-0.1,0.3-0.4,0.5-0.7,0.4
				c-0.3-0.1-0.5-0.4-0.4-0.7c0-0.1,0.1-0.1,0.1-0.2c0-0.1,0.1-0.1,0.2-0.1C84.5,45.3,84.6,45.3,84.8,45.4z"/>
		</g>
		<g>
			<path class="st3" d="M105.1,45.6c0.3,0.1,0.4,0.5,0.3,0.8c-0.1,0.3-0.5,0.4-0.7,0.3c-0.3-0.1-0.4-0.5-0.3-0.8
				C104.5,45.5,104.8,45.4,105.1,45.6z"/>
		</g>
		<g>
			<path class="st3" d="M90.3,34.3c0.2,0.2,0.3,0.5,0.1,0.8c-0.2,0.2-0.5,0.3-0.8,0.1c-0.3-0.2-0.3-0.5-0.1-0.8
				C89.7,34.2,90.1,34.2,90.3,34.3z"/>
		</g>
		<g>
			<path class="st3" d="M120.5,55.9c0.2,0.2,0.2,0.6,0,0.8c-0.2,0.2-0.6,0.2-0.8,0c-0.2-0.2-0.2-0.6,0-0.8
				C119.9,55.6,120.3,55.7,120.5,55.9z"/>
		</g>
		<g>
			<path class="st3" d="M90.7,50.8c0.3,0,0.5,0.2,0.7,0.4c0.2,0.2,0.3,0.5,0.2,0.8c0,0.3-0.2,0.5-0.4,0.7c-0.2,0.2-0.5,0.3-0.8,0.3
				c-0.3,0-0.6-0.2-0.7-0.4c-0.2-0.2-0.3-0.5-0.2-0.8c0-0.3,0.2-0.6,0.4-0.8C90.1,50.9,90.4,50.8,90.7,50.8z"/>
		</g>
		<g>
			<path class="st3" d="M105.5,39.4c0.2,0.2,0.4,0.4,0.5,0.7c0.1,0.3,0,0.6-0.1,0.8c-0.2,0.2-0.4,0.4-0.6,0.5
				c-0.3,0.1-0.6,0.1-0.8-0.1c-0.3-0.1-0.4-0.4-0.5-0.6c-0.1-0.3-0.1-0.6,0.1-0.8c0.2-0.3,0.4-0.4,0.7-0.5
				C104.9,39.2,105.2,39.3,105.5,39.4z"/>
		</g>
	</g>
	<g>
		<g>
			<path class="st3" d="M223.9,214.3c-0.2-0.2-0.3-0.6-0.1-0.8c0.2-0.2,0.5-0.3,0.8-0.1c0.2,0.2,0.3,0.6,0.1,0.8
				C224.5,214.5,224.1,214.5,223.9,214.3z"/>
		</g>
		<g>
			<path class="st3" d="M211.5,231.8c-0.1-0.1-0.1-0.3-0.1-0.4c0-0.1,0-0.1,0.1-0.2c0-0.1,0.1-0.1,0.1-0.2c0.2-0.2,0.6-0.2,0.8,0.1
				c0.2,0.2,0.2,0.6-0.1,0.8c-0.1,0.1-0.1,0.1-0.2,0.1c-0.1,0-0.1,0-0.2,0C211.7,231.9,211.6,231.9,211.5,231.8z"/>
		</g>
		<g>
			<path class="st3" d="M194.9,220c-0.1-0.3,0-0.6,0.2-0.8c0.3-0.2,0.6-0.1,0.8,0.2c0.2,0.3,0.1,0.6-0.2,0.8
				C195.4,220.3,195,220.2,194.9,220z"/>
		</g>
		<g>
			<path class="st3" d="M200.6,237.6c-0.1-0.3,0.1-0.6,0.4-0.7c0.3-0.1,0.6,0.1,0.7,0.3c0.1,0.3-0.1,0.6-0.4,0.7
				C201,238.1,200.7,237.9,200.6,237.6z"/>
		</g>
		<g>
			<path class="st3" d="M188.2,202.7c0-0.3,0.2-0.6,0.5-0.6c0.3,0,0.6,0.2,0.6,0.5c0.1,0.3-0.2,0.6-0.5,0.6
				C188.5,203.2,188.2,203,188.2,202.7z"/>
		</g>
		<g>
			<path class="st3" d="M209.7,223.9c-0.2-0.2-0.3-0.5-0.3-0.7c0-0.3,0.1-0.5,0.3-0.8c0.2-0.2,0.5-0.3,0.7-0.4c0.3,0,0.6,0,0.8,0.2
				c0.2,0.2,0.4,0.4,0.4,0.7c0,0.3-0.1,0.6-0.3,0.8c-0.2,0.2-0.5,0.4-0.8,0.4C210.2,224.2,209.9,224.1,209.7,223.9z"/>
		</g>
		<g>
			<path class="st3" d="M191.1,224.8c-0.1-0.3-0.1-0.6,0-0.8c0.1-0.3,0.3-0.5,0.5-0.6c0.3-0.1,0.5-0.1,0.8,0
				c0.3,0.1,0.5,0.3,0.6,0.5c0.1,0.3,0.2,0.6,0.1,0.8c-0.1,0.3-0.3,0.5-0.6,0.6c-0.3,0.1-0.6,0.1-0.9,0
				C191.4,225.3,191.2,225.1,191.1,224.8z"/>
		</g>
	</g>
	<path class="st4" d="M226.2,79.2c-1.4-1.1-3.3,1.1-3.5,1.3c0.1-0.2,1.7-2.1-0.1-2.8c-1-0.3-2.2-0.1-3.6,2.1c-1.9,3-3.5,5.7-3.5,5.7
		s0.5-2.8,1.8-5.9c0.7-1.8-0.3-2.6-0.8-2.7c-1.2-0.2-2.1,0.1-3.6,3.3c-1.6,3.2-2.2,5.1-2.2,5.1s-8.1,0.3-10.9,1.4
		c-1.1,0.4-1.8,2.5-2.3,4.7c-0.5,2.4-2.7,19.2-3.9,23.5c4.3,1.4,8.7,2.8,13,3.9c0.8,0.2,2.8,0.4,2.8,0.4s0.8-16.1,1.2-21.4
		c0.1-1.7,1.2-3.2,2.7-3.9c3.4-1.6,8.9-3.9,9.3-4.4c1.2-1.4,2.8-4.4,3.8-7.7C227,80.1,226.7,79.5,226.2,79.2z"/>
	<path class="st3" d="M218.8,89.1c-0.1,0-0.1,0-0.2,0c-0.2-0.1-0.3-0.4-0.2-0.6c0.3-0.6,4.4-9,4.6-9.3c0.1-0.2,0.4-0.3,0.6-0.2
		c0.2,0.1,0.3,0.4,0.2,0.6c0,0.1-4.3,8.7-4.5,9.3C219.2,89,219,89.1,218.8,89.1z"/>
	<path class="st3" d="M214.7,88c0,0-0.1,0-0.1,0c-0.2-0.1-0.4-0.3-0.3-0.6l1.3-4.1c0.1-0.2,0.3-0.4,0.6-0.3c0.2,0.1,0.4,0.3,0.3,0.6
		l-1.3,4.1C215.1,87.9,214.9,88,214.7,88z"/>
	<path class="st4" d="M222.7,89.6c0,0,6.5-5.2,6.9-6c0.4-0.8-2-2.9-3.1-1.6L222.7,89.6z"/>
	<path class="st3" d="M222.6,90.2c-0.1,0-0.1,0-0.2,0c-0.2-0.1-0.3-0.4-0.2-0.6l4.2-8.9c0.1-0.2,0.4-0.3,0.6-0.2
		c0.2,0.1,0.3,0.4,0.2,0.6L223,90C222.9,90.1,222.7,90.2,222.6,90.2z"/>
	<g>
		<g>
			<g>
				<g>
					<path class="st5" d="M109.8,156.8l32.3-0.5l16.3,0.4l13.2,3.7c0,0,5.6,53.3,3.9,97h-29.3c-1.1-21.2-4.2-62.2-4.2-62.2
						s-0.8,12.8-9.2,62.2h-28.9L109.8,156.8z"/>
				</g>
			</g>
		</g>
	</g>
	<path class="st1" d="M141.6,203.3c-0.3,0-0.5-0.3-0.5-0.5l1.7-13.7c0.4-3.4,1.8-6.6,4.1-9.2l2.3-2.7c0.2-0.2,0.5-0.2,0.7,0
		c0.2,0.2,0.2,0.5,0,0.7l-2.4,2.7c-2.1,2.5-3.5,5.5-3.9,8.7l-1.7,13.7C142,203.1,141.8,203.3,141.6,203.3z"/>
	<path class="st6" d="M196.7,90.9l-5.6,17.8c-2.3-4.3-11.5-16.8-17.1-21.1c-7.1-5.5-21.7-6.1-21.7-6.1s-12.5-0.3-15.6-0.1
		c-5.2,0.4-29.6,2.1-33.3,15.6c-2.3,8.2-5.1,20.4-6,28.3c-1,8.9-8.6,35.2,6.9,54.5c10.8,13.3,10.9,11.7,10.9,11.7l10.2-23.2
		l-4.6-7.6c-0.1,0,0.4-0.5,0.5-0.5c1.8,0.1,27.9,0.1,27.5,0c0,0,0,0-0.1-0.1l23.9,0.3l0.5-26.1c0.2,12.2,14.9,14.4,19.9,12.2
		c16.3-7.2,17.5-29.1,24.4-48.9L196.7,90.9z"/>
	<path class="st4" d="M139.1,49l3.2,0l0.7,1.6c2.9,0.2,13.9,0.9,13.9,0.9l1.3,1.9l0.6,13.8c0,2.2-1.3,5.4-6.9,5.5l0,6.3l-5,5.1
		c0,0-8.5-4.5-8.6-5.1C138.3,78.4,139.1,49,139.1,49z"/>
	<path class="st7" d="M151.9,76.8c-4.7-0.5-6.9-3-7.8-4.9c-0.2-0.4,0.3-0.9,0.7-0.6c2.9,2,7.1,1.3,7.1,1.3c0,0.4,0,0.8,0,1.3
		L151.9,76.8z"/>
	<path class="st3" d="M137.2,47.9c0,0,0-4.5,6.9-4.5c2.1,0,3.7,0.8,5.3,1c2.2,0.3,8.7-1,9,1.1c0.1,0.9-0.9,1.3-1.9,1.4
		c5.7,1.2,6.8,4.6,5.7,6.1c-1,1.4-10,0.4-15.5-1.3c-0.7-0.2-1.4,0.4-1.3,1.1c0.2,1.3,0.3,3-0.6,4.5c-1.1,2.1-3.2,2.7-3.2,2.7
		l-0.5,4.5c0,0,0.5,4.8-2.5,5.2c0,0,0-1.7-2.5-6.7C134.3,59.5,132.9,49.6,137.2,47.9z"/>
	<path class="st3" d="M154.1,65.5c-0.2,0-0.4-0.2-0.5-0.4c0-0.3,0.2-0.5,0.4-0.5c0.9-0.1,1.6-0.7,1.7-1c-1.5-2.6-1.6-4.8-1.6-4.9
		c0-0.3,0.2-0.5,0.5-0.5c0.3,0,0.5,0.2,0.5,0.5c0,0,0.1,2.1,1.5,4.5c0.1,0.1,0.2,0.4,0,0.8C156.3,64.6,155.2,65.4,154.1,65.5
		C154.1,65.5,154.1,65.5,154.1,65.5z"/>
	<path class="st3" d="M155.1,58c-0.1,0-0.3-0.1-0.4-0.2c-0.2-0.2-0.2-0.5,0-0.7c0.1,0,1.3-1.2,2.7-0.5c0.2,0.1,0.3,0.4,0.2,0.6
		c-0.1,0.2-0.4,0.3-0.6,0.2c-0.8-0.4-1.7,0.3-1.7,0.4C155.4,58,155.2,58,155.1,58z"/>
	<polygon class="st6" points="156.6,82.4 152.6,75.6 148.6,83.1 136.3,75.1 131.5,82 139.9,93.7 147.2,87.9 152.1,93.1 	"/>
	<path class="st3" d="M143,94.4c-0.1,0-0.2,0-0.3-0.1l-10.9-10.4c-0.2-0.2-0.2-0.5,0-0.7c0.2-0.2,0.5-0.2,0.7,0l10.4,10l5.6-9
		c0.1-0.1,0.2-0.2,0.4-0.2c0.2,0,0.3,0.1,0.4,0.2l6,7.8l0.8-9.3c0-0.3,0.3-0.5,0.5-0.4c0.3,0,0.5,0.3,0.4,0.5l-0.9,10.5
		c0,0.2-0.2,0.4-0.3,0.4c-0.2,0.1-0.4,0-0.5-0.2l-6.3-8.2l-5.6,8.9C143.3,94.3,143.2,94.4,143,94.4C143,94.4,143,94.4,143,94.4z"/>
	<path class="st3" d="M150.8,162.7c-0.3,0-0.5-0.2-0.5-0.5c2.3-44-1.8-77.4-1.8-77.7c0-0.3,0.2-0.5,0.4-0.5c0.3,0,0.5,0.2,0.5,0.4
		c0,0.3,4.2,33.7,1.8,77.9C151.3,162.5,151,162.7,150.8,162.7z"/>
	<path class="st8" d="M155.9,110.9c0,0.9,0.6,1.7,1.2,1.7c0.7,0,1.2-0.8,1.2-1.7c0-0.9-0.6-1.7-1.2-1.7
		C156.5,109.2,155.9,110,155.9,110.9z"/>
	<path class="st8" d="M154.3,150.4c0,0.9,0.6,1.7,1.2,1.7c0.7,0,1.2-0.8,1.2-1.7c0-0.9-0.6-1.7-1.2-1.7
		C154.8,148.6,154.3,149.4,154.3,150.4z"/>
	<path class="st8" d="M155.5,129.6c0,0.9,0.6,1.7,1.2,1.7c0.7,0,1.2-0.8,1.2-1.7c0-0.9-0.6-1.7-1.2-1.7
		C156.1,127.9,155.5,128.6,155.5,129.6z"/>
	<path class="st3" d="M173.3,139.3c-0.3,0-0.5-0.2-0.5-0.5c0-0.2,0.5-21.8-1-36.2c0-0.3,0.2-0.5,0.4-0.5c0.3,0,0.5,0.2,0.5,0.4
		c1.5,14.4,1,36.1,1,36.3C173.7,139.1,173.5,139.3,173.3,139.3z"/>
	<path class="st3" d="M121.6,161.1c-0.3,0-0.5-0.2-0.5-0.5c0-0.2,0.8-23.6,0.8-57.6c0-0.3,0.2-0.5,0.5-0.5c0.3,0,0.5,0.2,0.5,0.5
		c0,34-0.8,57.4-0.8,57.6C122,160.9,121.8,161.1,121.6,161.1z"/>
	<g>
		<path class="st3" d="M148.7,58.9c-0.1,0-0.2,0-0.2-0.1c-0.2-0.1-0.3-0.4-0.2-0.6c0.4-0.7,1.7-1.9,3.8-0.9c0.2,0.1,0.3,0.4,0.2,0.6
			c-0.1,0.2-0.4,0.3-0.6,0.2c-1.7-0.8-2.5,0.4-2.6,0.5C149,58.8,148.9,58.9,148.7,58.9z"/>
		<path class="st3" d="M149.8,60.3c0-0.3,0-0.5,0-0.8c0-0.2,0.2-0.4,0.4-0.4c0,0,0.1,0,0.1,0c0.1,0,0.3,0.1,0.3,0.2
			c0,0.1,0,0.1,0,0.1c0,0.2,0.1,0.5,0.1,0.8c0,0.3,0.1,0.5-0.1,0.7c-0.1,0.1-0.4,0.2-0.5,0.1C149.8,60.8,149.9,60.6,149.8,60.3z"/>
		<path class="st3" d="M156.5,60c0-0.3,0-0.5,0-0.8c0-0.2,0.2-0.4,0.4-0.4c0,0,0.1,0,0.1,0c0.1,0,0.3,0.1,0.3,0.2c0,0.1,0,0.1,0,0.1
			c0,0.2,0.1,0.5,0.1,0.8c0,0.3,0.1,0.5-0.1,0.7c-0.1,0.1-0.4,0.2-0.5,0.1C156.5,60.5,156.5,60.3,156.5,60z"/>
	</g>
	<path class="st3" d="M151.9,68.1c-0.3,0-0.5-0.1-0.8-0.2c-1.2-0.6-1.1-2-1.1-2.1c0-0.3,0.3-0.4,0.5-0.4c0.3,0,0.5,0.3,0.4,0.5
		c0,0-0.1,0.9,0.5,1.1c0.9,0.4,1.6-0.6,1.6-0.7c0.1-0.2,0.4-0.3,0.6-0.2c0.2,0.1,0.3,0.4,0.2,0.6C153.6,67.3,152.8,68.1,151.9,68.1z
		"/>
	<path class="st1" d="M114.3,194.5c-0.1,0-0.1,0-0.2,0c-0.2-0.1-0.4-0.4-0.3-0.6c4.6-10.8,11.4-27.3,11.6-28.2
		c0-0.3,0.3-0.4,0.5-0.4c0.3,0,0.4,0.3,0.4,0.5c-0.1,0.9-9.7,23.9-11.7,28.5C114.6,194.4,114.4,194.5,114.3,194.5z"/>
	<path class="st3" d="M122.8,163.4c-0.2,0-0.3-0.1-0.4-0.2L110.7,145c-0.1-0.2-0.1-0.5,0.1-0.7c0.2-0.1,0.5-0.1,0.7,0.1l11.7,18.2
		c0.1,0.2,0.1,0.5-0.1,0.7C123,163.4,122.9,163.4,122.8,163.4z"/>
	<path class="st3" d="M186.8,120.1c-0.1,0-0.1,0-0.2,0c-0.2-0.1-0.4-0.4-0.3-0.6l4.3-10.8c0.1-0.2,0.4-0.4,0.6-0.3
		c0.2,0.1,0.4,0.4,0.3,0.6l-4.3,10.8C187.2,119.9,187,120.1,186.8,120.1z"/>
	<g>
		<path class="st4" d="M142.6,64.5c-1.1,0.7-2.8,0.3-3.8-1s-1-2.9,0.1-3.7c1.1-0.7,2.8-0.3,3.8,1C143.7,62.1,143.7,63.8,142.6,64.5z
			"/>
		<path class="st3" d="M142.5,63.9c-0.2,0-0.5-0.2-0.5-0.4c-0.1-2.1-2.5-2.3-2.6-2.3c-0.3,0-0.4-0.3-0.4-0.5c0-0.3,0.3-0.4,0.5-0.4
			c1.1,0.1,3.3,0.9,3.5,3.2C143,63.7,142.8,63.9,142.5,63.9C142.6,63.9,142.5,63.9,142.5,63.9z"/>
	</g>
	<path class="st3" d="M184.7,112c-0.2,0-0.3-0.1-0.4-0.2c-0.1-0.2,0-0.5,0.2-0.6l4.3-2.4c0.2-0.1,0.5,0,0.6,0.2
		c0.1,0.2,0,0.5-0.2,0.6l-4.3,2.4C184.8,112,184.8,112,184.7,112z"/>
	<path class="st9" d="M81.7,176.8c-0.6,0-1.2-0.4-1.5-1c-1.2-3.1-4.3-3.7-7.8-4.4c-3.9-0.8-8.2-1.7-10.1-6.3
		c-1.9-4.6,0.6-8.3,2.8-11.6c2-3,3.8-5.5,2.5-8.6c-0.3-0.8,0.1-1.7,0.9-2c0.8-0.3,1.7,0.1,2,0.9c1.9,4.6-0.6,8.3-2.8,11.6
		c-2,3-3.8,5.5-2.5,8.6c1.2,3.1,4.3,3.7,7.8,4.4c3.9,0.8,8.2,1.7,10.1,6.3c0.3,0.8-0.1,1.7-0.9,2C82.1,176.8,81.9,176.8,81.7,176.8z
		"/>
	<g>
		<defs>
			
				<rect id="SVGID_1_" x="218.6" y="156" transform="matrix(-1 -1.224647e-16 1.224647e-16 -1 454.8995 346.4314)" width="17.8" height="34.5"/>
		</defs>
		<clipPath id="SVGID_00000123414066587053906790000003217414589703852438_">
			<use xlink:href="#SVGID_1_"  style="overflow:visible;"/>
		</clipPath>
		
			<rect x="218.6" y="156" style="clip-path:url(#SVGID_00000123414066587053906790000003217414589703852438_);fill:#73C0AE;" width="17.8" height="34.5"/>
	</g>
	<path class="st3" d="M227.4,173.7h-25.9c-0.3,0-0.5-0.2-0.5-0.5s0.2-0.5,0.5-0.5h25.9c0.3,0,0.5,0.2,0.5,0.5
		S227.7,173.7,227.4,173.7z"/>
	<g>
		<defs>
			<path id="SVGID_00000100365772644853529180000003967897736787594420_" d="M137.2,47.9c0,0,0-4.5,6.9-4.5c2.1,0,3.7,0.8,5.3,1
				c2.2,0.3,8.7-1,9,1.1c0.1,0.9-0.9,1.3-1.9,1.4c5.7,1.2,6.8,4.6,5.7,6.1c-1,1.4-10,0.4-15.5-1.3c-0.7-0.2-1.4,0.4-1.3,1.1
				c0.2,1.3,0.3,3-0.6,4.5c-1.1,2.1-3.2,2.7-3.2,2.7l-0.5,4.5c0,0,0.5,4.8-2.5,5.2c0,0,0-1.7-2.5-6.7
				C134.3,59.5,132.9,49.6,137.2,47.9z"/>
		</defs>
		<clipPath id="SVGID_00000022534141171669825470000014935929330518358402_">
			<use xlink:href="#SVGID_00000100365772644853529180000003967897736787594420_"  style="overflow:visible;"/>
		</clipPath>
	</g>
	<g>
		<defs>
			<path id="SVGID_00000009585833461687523520000016358578462649995956_" d="M196.7,90.9l-5.6,17.8c-2.3-4.3-11.5-16.8-17.1-21.1
				c-7.1-5.5-21.7-6.1-21.7-6.1s-12.5-0.3-15.6-0.1c-5.2,0.4-29.6,2.1-33.3,15.6c-2.3,8.2-5.1,20.4-6,28.3c-1,8.9-8.6,35.2,6.9,54.5
				c10.8,13.3,10.9,11.7,10.9,11.7l10.2-23.2l-4.6-7.6c-0.1,0,0.4-0.5,0.5-0.5c1.8,0.1,27.9,0.1,27.5,0c0,0,0,0-0.1-0.1l23.9,0.3
				l0.5-26.1c0.2,12.2,14.9,14.4,19.9,12.2c16.3-7.2,17.5-29.1,24.4-48.9L196.7,90.9z"/>
		</defs>
		<clipPath id="SVGID_00000052790071714782367480000012339715979287096748_">
			<use xlink:href="#SVGID_00000009585833461687523520000016358578462649995956_"  style="overflow:visible;"/>
		</clipPath>
	</g>
</g>
</svg>
