<?xml version="1.0" encoding="utf-8"?>
<!-- Generator: Adobe Illustrator 26.3.1, SVG Export Plug-In . SVG Version: 6.00 Build 0)  -->
<svg version="1.1" id="sv" xmlns="http://www.w3.org/2000/svg" xmlns:xlink="http://www.w3.org/1999/xlink" x="0px" y="0px"
	 viewBox="0 0 303.8 259.6" style="enable-background:new 0 0 303.8 259.6;" xml:space="preserve">
<style type="text/css">
	.st0{fill:#FFAEC1;}
	.st1{fill:#73C0AE;}
	.st2{fill:#FFFFFF;}
	.st3{fill:#EA6F46;}
	.st4{fill:#EDAD6D;}
	.st5{fill-rule:evenodd;clip-rule:evenodd;fill:#EDAD6D;}
	.st6{fill:#33384D;}
	.st7{fill-rule:evenodd;clip-rule:evenodd;fill:#33384D;}
	.st8{fill:#E87485;}
	.st9{fill-rule:evenodd;clip-rule:evenodd;fill:#FFAEC1;}
	.st10{clip-path:url(#SVGID_00000005241125018297963690000012177668682762492863_);fill:#FFC050;}
	.st11{clip-path:url(#SVGID_00000005241125018297963690000012177668682762492863_);fill:#73C0AE;}
</style>
<g>
	<polygon class="st0" points="114.5,94 117.3,98.9 123.5,95.8 122.8,85.1 	"/>
	<path class="st1" d="M119.3,95.3h-45c-3.6,0-6.6-3-6.6-6.6V56.1c0-3.6,3-6.6,6.6-6.6h45c3.6,0,6.6,3,6.6,6.6v32.6
		C125.9,92.3,123,95.3,119.3,95.3z"/>
	<path class="st2" d="M118.2,60.6c0,2.5-2.1,4.6-4.6,4.6s-4.6-2.1-4.6-4.6c0-2.5,2.1-4.6,4.6-4.6S118.2,58,118.2,60.6z"/>
	<path class="st3" d="M125.9,88.7V74.1c0,0-8.9,12.1-29.1,0.1c-20.2-11.9-29.1-0.4-29.1,0v14.5c0,3.6,3,6.6,6.6,6.6h45
		C123,95.3,125.9,92.3,125.9,88.7z"/>
	<path class="st0" d="M130.4,93.7c0,0,0.9-6.9,0.7-8.7c-0.4-3.6-2.3-5.5-3.9-9.3c-1.6-3.7-5.3-1.7-3.5,1.9c1.5,3.1,0.9,6.7,0.5,6.9
		c-0.4,0.2-5.4,7-2.6,13.3L130.4,93.7z"/>
	<path class="st4" d="M127,162.8c0,1.9-1.6,3.5-3.5,3.5c-1.9,0-3.5-1.6-3.5-3.5c0-1.9,1.6-3.5,3.5-3.5
		C125.5,159.3,127,160.9,127,162.8z"/>
	<path class="st1" d="M224.7,62.8c0,1.9-1.6,3.5-3.5,3.5c-1.9,0-3.5-1.6-3.5-3.5c0-1.9,1.6-3.5,3.5-3.5
		C223.1,59.3,224.7,60.9,224.7,62.8z"/>
	<g>
		<path class="st5" d="M224.4,250h-27.7c-8.1-47.3-8.9-59.6-8.9-59.6s-3,39.6-4.1,59.9l-28.1-0.3c-1.6-41.9,3.1-92.9,3.1-92.9
			l13.3-3.6l15.6-0.4l31,0.5L224.4,250z"/>
	</g>
	<path class="st6" d="M188.2,198.2c-0.2,0-0.4-0.2-0.5-0.4l-1.6-13.1c-0.4-3.1-1.7-6-3.7-8.3l-2.3-2.6c-0.2-0.2-0.1-0.5,0-0.7
		c0.2-0.2,0.5-0.1,0.7,0l2.3,2.6c2.2,2.5,3.5,5.6,3.9,8.9l1.6,13.1C188.7,197.9,188.5,198.2,188.2,198.2
		C188.2,198.2,188.2,198.2,188.2,198.2z"/>
	<path class="st7" d="M135.8,91l5.6,17.8c2.3-4.3,11.5-16.8,17.1-21.1c7.1-5.5,21.7-6.1,21.7-6.1s12.5-0.3,15.6-0.1
		c5.2,0.4,24.2,1.3,31.4,13.3c5.2,8.7,14.7,26.8,10.9,38.6c-3.5,10.9-19.7,7.7-19.7,7.7s1.8,19.3,1.7,19.3l-9-0.1
		c-1.8,0.1-27.9,0.1-27.5,0c0,0,0,0,0.1-0.1l-25.8,0.3l0.9-25.9c-0.2,12.2-14.4,14.1-19.3,11.9c-16.3-7.2-17.5-29.1-24.4-48.9
		L135.8,91z"/>
	<path class="st2" d="M158.4,140.4c-0.3,0-0.5-0.2-0.5-0.5c0-0.2,0.4-22.8,1.9-37.2c0-0.3,0.3-0.4,0.5-0.4c0.3,0,0.4,0.3,0.4,0.5
		c-1.5,14.4-1.9,36.9-1.9,37.1C158.8,140.2,158.6,140.4,158.4,140.4z"/>
	<path class="st2" d="M145.7,120.1c-0.2,0-0.4-0.1-0.4-0.3L141,109c-0.1-0.2,0-0.5,0.3-0.6c0.2-0.1,0.5,0,0.6,0.3l4.3,10.8
		c0.1,0.2,0,0.5-0.3,0.6C145.9,120.1,145.8,120.1,145.7,120.1z"/>
	<path class="st6" d="M147.9,112.1c-0.1,0-0.2,0-0.2-0.1l-4.3-2.4c-0.2-0.1-0.3-0.4-0.2-0.6c0.1-0.2,0.4-0.3,0.6-0.2l4.3,2.4
		c0.2,0.1,0.3,0.4,0.2,0.6C148.2,112,148.1,112.1,147.9,112.1z"/>
	<path class="st2" d="M212.9,119.4c-0.2,0-0.4-0.2-0.5-0.4l-3.2-15.9c-0.1-0.3,0.1-0.5,0.4-0.6c0.3-0.1,0.5,0.1,0.6,0.4l3.2,15.9
		C213.5,119.1,213.3,119.3,212.9,119.4C213,119.4,213,119.4,212.9,119.4z"/>
	<path class="st0" d="M179.5,54.1c0.4-0.8,0.7-1.5,1-2c0.4-0.7,1.1-1,1.9-0.9c2.9,0.6,9.4,2.6,11.1,3.8c1.8,1.4,0.1,7.3-1.9,10.9
		c-0.2,0.4-0.4,0.7-0.5,1.1l1.9,2.2l4.4,12.4l-13.8,2.8l-1.5-1.3l-2-9.5C172.9,70,176.9,59.4,179.5,54.1z"/>
	<path class="st6" d="M181.5,58.2c-0.1,0-0.3-0.1-0.3-0.2c0,0-0.8-0.8-1.7-0.5c-0.2,0.1-0.5,0-0.6-0.3c-0.1-0.2,0-0.5,0.3-0.6
		c1.5-0.5,2.6,0.7,2.7,0.8c0.2,0.2,0.2,0.5,0,0.7C181.8,58.2,181.7,58.2,181.5,58.2z"/>
	<g>
		<path class="st6" d="M187.7,61.2c-0.2,0-0.4-0.2-0.5-0.4c0-0.2-0.4-1.5-2.3-1.2c-0.3,0-0.5-0.1-0.5-0.4c0-0.3,0.1-0.5,0.4-0.5
			c2.3-0.4,3.2,1.1,3.4,2C188.2,60.9,188,61.1,187.7,61.2C187.8,61.2,187.7,61.2,187.7,61.2z"/>
		<path class="st6" d="M186,62.2c0.1-0.2,0.2-0.5,0.3-0.7c0.1-0.2,0-0.5-0.2-0.5c0,0-0.1,0-0.1,0c-0.1,0-0.3,0-0.3,0.1
			c0,0.1-0.1,0.1-0.1,0.1c-0.1,0.2-0.2,0.5-0.3,0.7c-0.1,0.3-0.2,0.4-0.1,0.7c0.1,0.2,0.3,0.3,0.5,0.2
			C185.9,62.7,185.9,62.4,186,62.2z"/>
		<path class="st6" d="M179.8,60c0.1-0.2,0.2-0.5,0.3-0.7c0.1-0.2,0-0.5-0.2-0.5c0,0-0.1,0-0.1,0c-0.1,0-0.3,0-0.3,0.1
			c0,0.1-0.1,0.1-0.1,0.1c-0.1,0.2-0.2,0.5-0.3,0.7c-0.1,0.3-0.2,0.4-0.1,0.7c0.1,0.2,0.3,0.3,0.5,0.2
			C179.6,60.4,179.7,60.2,179.8,60z"/>
	</g>
	<path class="st2" d="M180.4,67c-0.4,0.1-0.5,0.6-0.2,0.9c0.6,0.5,1.7,1.3,2.8,0.6c0.7-0.4,0.8-1.5,0.9-2.1c0-0.4-0.4-0.7-0.7-0.5
		L180.4,67z"/>
	<path class="st6" d="M178.6,65.9c-0.2,0-0.4-0.1-0.4-0.3c-0.1-0.2-0.8-2,0-3.1c0.7-0.9,3.4-4.8,3.4-4.8c0.1-0.2,0.4-0.3,0.7-0.1
		c0.2,0.1,0.3,0.4,0.1,0.7c-0.1,0.2-2.8,4-3.4,4.9c-0.4,0.6-0.1,1.8,0.1,2.2c0.1,0.2,0,0.5-0.3,0.6
		C178.7,65.9,178.6,65.9,178.6,65.9z"/>
	<path class="st8" d="M184.7,73.5c0.6-0.1,1,0.4,0.8,1l-3.9,6l-1.6-6.9L184.7,73.5z"/>
	<path class="st6" d="M185.6,45.4c4-0.5,5.3,2.6,5.3,2.6s8-0.9,11.8,7c3,6.2-0.6,11.8-8,18.8c0,0-2.9-1.7-3.7-4.8
		c-0.2-0.9,0.1-2,0.6-3c0.7-1.2,1.4-2.8,1.8-4.3c-1.2-0.5-2-1.9-2-3.7c0-1.4,0.6-2.6,1.4-3.3c-2.3-1.2-7.8-2.9-10.4-3.4
		c-0.7-0.2-1.5,0.2-1.9,0.9c-0.3,0.5-0.6,1.2-1,2C178.6,52.8,178.5,46.3,185.6,45.4z"/>
	<g>
		<path class="st0" d="M190,68.3c0.8,1,2.6,1.1,3.9,0.2c1.4-0.9,1.8-2.5,1-3.5c-0.8-1-2.6-1.1-3.9-0.2
			C189.6,65.7,189.2,67.3,190,68.3z"/>
		<path class="st6" d="M190.4,67.8c-0.1,0-0.1,0-0.2,0c-0.2-0.1-0.4-0.4-0.3-0.6c0.8-2.2,3.1-2.3,4.3-2.1c0.3,0.1,0.4,0.3,0.4,0.6
			c-0.1,0.3-0.3,0.4-0.6,0.4c-0.1,0-2.5-0.5-3.2,1.5C190.8,67.6,190.6,67.8,190.4,67.8z"/>
	</g>
	<path class="st9" d="M202.3,82.2c-2.8-0.4-5.1-0.5-6.5-0.6c-3.1-0.2-15.6,0.1-15.6,0.1s-3.1,0.1-7.2,0.8l0.6,1c0,0,4.8,7.7,13.8,7
		C194.1,90,199.7,84.9,202.3,82.2z"/>
	<path class="st3" d="M186.2,132.4h-35.7c-2.6,0-4.7-2.1-4.7-4.7v-20c0-2.6,2.1-4.7,4.7-4.7h35.7c2.6,0,4.7,2.1,4.7,4.7v20
		C190.9,130.3,188.8,132.4,186.2,132.4z"/>
	<path class="st2" d="M163.4,125.1h11.4c1.3,0,2.2-1.4,1.6-2.6l-5.8-10.9c-0.7-1.3-2.5-1.3-3.2,0l-5.6,10.9
		C161.2,123.7,162.1,125.1,163.4,125.1z"/>
	<g>
		<path class="st9" d="M197.9,127.9l-0.9-9.8c-1.1-3.3-3.6-6.4-5.1-7.4c-3.3-2.1-14.9,3.9-13,7.1c0.4,0.7,4.4-0.8,1.8,0.1
			c-0.9,0.6-1.5,1.1-1.5,1.6c-0.1,1.6,2.8,1.7,2.8,1.7s-1.3,2-0.4,3.3c0.9,1.3,1.6,1.3,1.6,1.3s-2,1.8,0.4,2.3s7.2-1.2,7.2-1.2
			s2.7,6.8,7.9,6.8L197.9,127.9z"/>
		<path class="st6" d="M180.8,118.3c-0.2,0-0.3-0.1-0.4-0.3c-0.1-0.2,0-0.5,0.2-0.6l6.5-3c0.2-0.1,0.5,0,0.6,0.2
			c0.1,0.2,0,0.5-0.2,0.6l-6.5,3C181,118.3,180.9,118.3,180.8,118.3z"/>
		<path class="st6" d="M182.1,121.6c-0.2,0-0.4-0.1-0.4-0.3c-0.1-0.2,0-0.5,0.2-0.6l7.6-3.3c0.2-0.1,0.5,0,0.6,0.2
			c0.1,0.2,0,0.5-0.2,0.6l-7.6,3.3C182.3,121.5,182.2,121.6,182.1,121.6z"/>
		<path class="st6" d="M183.4,126.1c-0.2,0-0.3-0.1-0.4-0.3c-0.1-0.2,0-0.5,0.2-0.6l7.1-3.3c0.2-0.1,0.5,0,0.6,0.2
			c0.1,0.2,0,0.5-0.2,0.6l-7.1,3.3C183.5,126.1,183.4,126.1,183.4,126.1z"/>
	</g>
	<path class="st2" d="M218.7,141.7c0,0-18.9-0.8-18.9-0.8c-0.2,0-0.4-0.2-0.4-0.4l-2.8-22.4c0-0.1,0-0.3,0.1-0.4
		c0.1-0.1,0.2-0.2,0.4-0.1l23.7,1.6c0.3,0,0.5,0.2,0.4,0.5c0,0.3-0.2,0.5-0.5,0.4l-23.1-1.6l2.6,21.4l18.5,0.7
		c0.3,0,0.5,0.2,0.5,0.5C219.2,141.5,219,141.7,218.7,141.7z"/>
	<g>
		<path class="st4" d="M160.1,10.7h-37.4c-2.9,0-5.2,2.4-5.2,5.2v7.1c0,2.9,2.4,5.2,5.2,5.2v5.9l7.9-5.9h29.5c2.9,0,5.2-2.4,5.2-5.2
			V16C165.4,13.1,163,10.7,160.1,10.7z"/>
		<path class="st2" d="M130.8,19.5c0,1.3-1.1,2.4-2.4,2.4c-1.3,0-2.4-1.1-2.4-2.4c0-1.3,1.1-2.4,2.4-2.4
			C129.7,17.1,130.8,18.2,130.8,19.5z"/>
		<path class="st2" d="M143.9,19.5c0,1.3-1.1,2.4-2.4,2.4c-1.3,0-2.4-1.1-2.4-2.4c0-1.3,1.1-2.4,2.4-2.4
			C142.8,17.1,143.9,18.2,143.9,19.5z"/>
		<path class="st2" d="M156.9,19.5c0,1.3-1.1,2.4-2.4,2.4s-2.4-1.1-2.4-2.4c0-1.3,1.1-2.4,2.4-2.4S156.9,18.2,156.9,19.5z"/>
	</g>
	<g>
		<defs>
			<path id="SVGID_1_" d="M65.5,158.7h25.9c0-14.3-11.6-25.8-25.9-25.8V158.7z"/>
		</defs>
		<clipPath id="SVGID_00000132785748144895055840000012493018905196438413_">
			<use xlink:href="#SVGID_1_"  style="overflow:visible;"/>
		</clipPath>
		<path style="clip-path:url(#SVGID_00000132785748144895055840000012493018905196438413_);fill:#FFC050;" d="M65.5,158.7h25.9
			c0-14.3-11.6-25.8-25.9-25.8V158.7z"/>
		<path style="clip-path:url(#SVGID_00000132785748144895055840000012493018905196438413_);fill:#73C0AE;" d="M65.5,158.7h25.9
			c0-14.3-11.6-25.8-25.9-25.8V158.7z"/>
	</g>
	<path class="st6" d="M80.3,146.5c-0.1,0-0.2,0-0.2-0.1c-0.1-0.1-0.1-0.3,0-0.5l16.2-14.8c0.1-0.1,0.3-0.1,0.5,0
		c0.1,0.1,0.1,0.3,0,0.5l-16.2,14.8C80.5,146.5,80.4,146.5,80.3,146.5z"/>
	<g>
		<g>
			<path class="st6" d="M100,198.4c-0.1,0.3-0.4,0.4-0.7,0.3c-0.3-0.1-0.4-0.4-0.3-0.7c0.1-0.3,0.4-0.4,0.7-0.3
				C100,197.7,100.2,198.1,100,198.4z"/>
		</g>
		<g>
			<path class="st6" d="M111.1,188.6c-0.1,0.1-0.2,0.2-0.4,0.2c-0.1,0-0.1,0-0.2,0c-0.1,0-0.1,0-0.2-0.1c-0.3-0.2-0.3-0.5-0.2-0.8
				c0.2-0.3,0.5-0.4,0.8-0.2c0.1,0,0.1,0.1,0.2,0.2c0,0.1,0.1,0.1,0.1,0.2C111.2,188.3,111.2,188.4,111.1,188.6z"/>
		</g>
		<g>
			<path class="st6" d="M105.3,214c-0.2,0.2-0.6,0.2-0.8,0c-0.2-0.2-0.2-0.6,0-0.8c0.2-0.2,0.6-0.2,0.8,0
				C105.5,213.5,105.5,213.8,105.3,214z"/>
		</g>
		<g>
			<path class="st6" d="M134.5,192.1c-0.3,0.2-0.6,0.1-0.8-0.1c-0.2-0.2-0.1-0.6,0.1-0.8c0.2-0.2,0.6-0.2,0.8,0.1
				C134.8,191.5,134.8,191.9,134.5,192.1z"/>
		</g>
		<g>
			<path class="st6" d="M138.3,216.6c-0.1,0.1-0.3,0.1-0.4,0c-0.1,0-0.1-0.1-0.2-0.1c-0.1,0-0.1-0.1-0.1-0.2c-0.1-0.3,0-0.6,0.2-0.7
				c0.3-0.1,0.6,0,0.8,0.2c0,0.1,0.1,0.1,0.1,0.2c0,0.1,0,0.1,0,0.2C138.5,216.4,138.4,216.5,138.3,216.6z"/>
		</g>
		<g>
			<path class="st6" d="M82.4,202c-0.1,0.3-0.3,0.5-0.6,0.6c-0.1,0.1-0.3,0.1-0.4,0.1c-0.1,0-0.1,0-0.2,0c0,0-0.1,0-0.1,0
				c0,0-0.1,0-0.1,0c-0.3-0.1-0.5-0.3-0.6-0.5c-0.1-0.2-0.2-0.5-0.1-0.8c0.1-0.3,0.3-0.5,0.5-0.6c0.2-0.1,0.6-0.2,0.9-0.1
				c0,0,0.1,0,0.1,0c0,0,0.1,0,0.1,0.1c0.1,0,0.1,0.1,0.2,0.1c0.1,0.1,0.2,0.2,0.3,0.3C82.5,201.4,82.5,201.7,82.4,202z"/>
		</g>
		<g>
			<path class="st6" d="M112.1,219.5c-0.3,0.1-0.6,0.1-0.8,0c-0.1-0.1-0.2-0.1-0.3-0.2c-0.1-0.1-0.2-0.2-0.2-0.3
				c-0.1-0.3-0.1-0.5,0-0.8c0.1-0.3,0.3-0.5,0.5-0.6c0.3-0.1,0.6-0.1,0.8,0c0.3,0.1,0.5,0.3,0.6,0.6c0.1,0.1,0.1,0.3,0.1,0.4
				c0,0.1,0,0.3-0.1,0.4C112.5,219.2,112.3,219.4,112.1,219.5z"/>
		</g>
		<g>
			<path class="st6" d="M93.8,224.3c-0.3,0.3-0.7,0.6-1,0.6c-0.2,0-0.4,0-0.6,0c-0.2,0-0.4-0.1-0.6-0.2c-0.1-0.1-0.2-0.1-0.2-0.2
				c-0.1-0.1-0.1-0.1-0.2-0.2c-0.1-0.2-0.2-0.3-0.2-0.5c0-0.2-0.1-0.4,0-0.6c0-0.2,0.1-0.4,0.2-0.6c0.1-0.2,0.2-0.4,0.4-0.5
				c0.2-0.1,0.4-0.2,0.6-0.3c0.2,0,0.4-0.1,0.6,0c0.1,0,0.2,0,0.3,0.1c0.1,0,0.2,0.1,0.3,0.2c0.2,0.1,0.4,0.3,0.5,0.5
				c0.1,0.2,0.2,0.4,0.2,0.6C94.1,223.5,94,223.9,93.8,224.3z"/>
		</g>
	</g>
	<g>
		<g>
			<path class="st6" d="M170,34.1c-0.3-0.1-0.5-0.4-0.4-0.7c0.1-0.3,0.3-0.5,0.6-0.4c0.3,0.1,0.5,0.4,0.5,0.7
				C170.6,34,170.3,34.2,170,34.1z"/>
		</g>
		<g>
			<path class="st6" d="M167.3,55.4c-0.1-0.1-0.2-0.2-0.3-0.3c0-0.1,0-0.1,0-0.2c0-0.1,0-0.1,0-0.2c0.1-0.3,0.4-0.4,0.7-0.3
				c0.3,0.1,0.4,0.4,0.3,0.7c0,0.1-0.1,0.1-0.1,0.2c-0.1,0.1-0.1,0.1-0.2,0.1C167.6,55.4,167.5,55.4,167.3,55.4z"/>
		</g>
		<g>
			<path class="st6" d="M147.1,52.9c-0.3-0.2-0.3-0.5-0.2-0.8c0.2-0.3,0.5-0.3,0.8-0.2c0.3,0.2,0.3,0.5,0.2,0.8
				C147.8,53,147.4,53,147.1,52.9z"/>
		</g>
		<g>
			<path class="st6" d="M160.6,65.7c-0.2-0.2-0.2-0.6,0-0.8c0.2-0.2,0.6-0.2,0.8,0c0.2,0.2,0.2,0.6,0,0.8
				C161.1,65.9,160.8,65.9,160.6,65.7z"/>
		</g>
		<g>
			<path class="st6" d="M133,40.9c-0.2-0.3-0.1-0.6,0.1-0.8c0.2-0.2,0.6-0.1,0.8,0.1c0.2,0.2,0.1,0.6-0.1,0.8
				C133.6,41.2,133.2,41.1,133,40.9z"/>
		</g>
		<g>
			<path class="st6" d="M162,49.3c-0.3-0.1-0.5-0.3-0.7-0.5c-0.1-0.2-0.2-0.5-0.1-0.8c0.1-0.3,0.2-0.5,0.5-0.7
				c0.2-0.2,0.5-0.2,0.8-0.2c0.3,0.1,0.5,0.2,0.7,0.5c0.2,0.2,0.2,0.5,0.1,0.8c-0.1,0.3-0.2,0.6-0.5,0.7
				C162.6,49.3,162.3,49.4,162,49.3z"/>
		</g>
		<g>
			<path class="st6" d="M146.1,58.9c-0.2-0.2-0.4-0.4-0.4-0.7c0-0.3,0-0.6,0.2-0.8c0.2-0.2,0.4-0.4,0.7-0.4c0.3,0,0.6,0,0.8,0.2
				c0.2,0.2,0.4,0.4,0.4,0.7c0,0.3,0,0.6-0.2,0.8c-0.2,0.2-0.5,0.4-0.7,0.4C146.6,59.2,146.3,59.1,146.1,58.9z"/>
		</g>
	</g>
	<g>
		<defs>
			<path id="SVGID_00000008842960854041157150000015298155698150141075_" d="M135.8,91l5.6,17.8c2.3-4.3,11.5-16.8,17.1-21.1
				c7.1-5.5,21.7-6.1,21.7-6.1s12.5-0.3,15.6-0.1c5.2,0.4,24.2,1.3,31.4,13.3c5.2,8.7,14.7,26.8,10.9,38.6
				c-3.5,10.9-19.7,7.7-19.7,7.7s1.8,19.3,1.7,19.3l-9-0.1c-1.8,0.1-27.9,0.1-27.5,0c0,0,0,0,0.1-0.1l-25.8,0.3l0.9-25.9
				c-0.2,12.2-14.4,14.1-19.3,11.9c-16.3-7.2-17.5-29.1-24.4-48.9L135.8,91z"/>
		</defs>
		<clipPath id="SVGID_00000042696785475243876360000007360460831826890122_">
			<use xlink:href="#SVGID_00000008842960854041157150000015298155698150141075_"  style="overflow:visible;"/>
		</clipPath>
	</g>
	<g>
		<defs>
			<path id="SVGID_00000174603218460817260760000008726003736609553822_" d="M185.6,45.4c4-0.5,5.3,2.6,5.3,2.6s8-0.9,11.8,7
				c3,6.2-0.6,11.8-8,18.8c0,0-2.9-1.7-3.7-4.8c-0.2-0.9,0.1-2,0.6-3c0.7-1.2,1.4-2.8,1.8-4.3c-1.2-0.5-2-1.9-2-3.7
				c0-1.4,0.6-2.6,1.4-3.3c-2.3-1.2-7.8-2.9-10.4-3.4c-0.7-0.2-1.5,0.2-1.9,0.9c-0.3,0.5-0.6,1.2-1,2
				C178.6,52.8,178.5,46.3,185.6,45.4z"/>
		</defs>
		<clipPath id="SVGID_00000103985070883621788520000008163193345665501351_">
			<use xlink:href="#SVGID_00000174603218460817260760000008726003736609553822_"  style="overflow:visible;"/>
		</clipPath>
	</g>
</g>
</svg>
