<?xml version="1.0" encoding="utf-8"?>
<!-- Generator: Adobe Illustrator 26.3.1, SVG Export Plug-In . SVG Version: 6.00 Build 0)  -->
<svg version="1.1" id="sv" xmlns="http://www.w3.org/2000/svg" xmlns:xlink="http://www.w3.org/1999/xlink" x="0px" y="0px"
	 viewBox="0 0 303.8 259.6" style="enable-background:new 0 0 303.8 259.6;" xml:space="preserve">
<style type="text/css">
	.st0{fill:#F5F5FA;}
	.st1{fill:#33384D;}
	.st2{fill:#EA6F46;}
	.st3{fill:#FFFFFF;}
	.st4{fill:#FFAEC1;}
	.st5{fill:#73C0AE;}
	.st6{fill:#EDAD6D;}
	.st7{clip-path:url(#SVGID_00000124869126335202038480000015449949449944895679_);fill:#73C0AE;}
</style>
<g>
	<path class="st0" d="M73,113.1h107.3c6.3,0,11.4-5.1,11.4-11.4V31c0-6.3-5.1-11.4-11.4-11.4H73c-6.3,0-11.4,5.1-11.4,11.4v70.7
		C61.5,108,66.7,113.1,73,113.1z"/>
	<path class="st1" d="M180.3,113.6H73c-6.6,0-11.9-5.3-11.9-11.9V31c0-6.6,5.3-11.9,11.9-11.9h107.3c6.6,0,11.9,5.3,11.9,11.9v70.7
		C192.2,108.2,186.8,113.6,180.3,113.6z M73,20c-6,0-11,4.9-11,11v70.7c0,6,4.9,11,11,11h107.3c6,0,11-4.9,11-11V31
		c0-6-4.9-11-11-11H73z"/>
	<g>
		
			<rect x="184.9" y="60.2" transform="matrix(-0.7525 0.6586 -0.6586 -0.7525 444.5793 108.2804)" class="st2" width="34.1" height="155"/>
		<path class="st3" d="M241.3,195.4c-0.3,0-0.6,0-0.9,0c-3.4-0.2-6.5-1.8-8.8-4.4c-2.3-2.6-3.4-5.9-3.1-9.3c0.2-3.4,1.8-6.5,4.4-8.8
			c2.6-2.3,5.9-3.4,9.3-3.1c3.4,0.2,6.5,1.8,8.8,4.4c4.7,5.3,4.1,13.4-1.2,18.1C247.3,194.3,244.4,195.4,241.3,195.4z M241.2,170.7
			c-2.9,0-5.6,1-7.8,2.9c-2.4,2.1-3.8,5-4,8.2c-0.2,3.2,0.8,6.2,2.9,8.6c2.1,2.4,5,3.8,8.2,4c3.2,0.2,6.2-0.8,8.6-2.9
			c4.9-4.3,5.4-11.8,1.1-16.8c-2.1-2.4-5-3.8-8.2-4C241.8,170.7,241.5,170.7,241.2,170.7z"/>
	</g>
	
		<ellipse transform="matrix(0.1602 -0.9871 0.9871 0.1602 83.0839 258.2903)" class="st1" cx="193.3" cy="80.3" rx="15.6" ry="15.6"/>
	<path class="st4" d="M192,96c-1.8-0.3-5.3-13.7-5.3-13.7c-4-2.7-2.6-8.4-1.7-11.2c0.2-0.5-0.4-1-0.9-0.7c-1.1,0.8-2.7,2-3.7,3.8
		c-0.3,0.5-2.6,4.7-2.6,4.7l-1.6-0.5c-0.9-0.2-1.7,0.5-1.4,1.4l0.5,1.9c-1.8,5.8-4.1,9.4,5.1,12.3c1,0.3,0,5.3-0.2,6.3l1.3,4.1
		l17.6,1L192,96z"/>
	<path class="st1" d="M180.1,78.8c0.1-0.3,0.1-0.5,0.3-0.8c0-0.2,0.3-0.3,0.5-0.3c0,0,0.1,0,0.1,0c0.1,0.1,0.2,0.2,0.2,0.3
		c0,0.1,0,0.1,0,0.2c0,0.3-0.1,0.5-0.2,0.8c-0.1,0.3-0.1,0.5-0.4,0.7c-0.2,0.1-0.4,0-0.5-0.1C179.9,79.3,180,79.1,180.1,78.8z"/>
	<path class="st1" d="M182.5,78.2c-0.2,0-0.4-0.2-0.5-0.4c0-0.2-0.3-1.3-1.6-1.1c-0.3,0-0.5-0.1-0.5-0.4c0-0.3,0.1-0.5,0.4-0.5
		c1.8-0.3,2.6,1.1,2.7,1.8C183,77.9,182.8,78.1,182.5,78.2C182.6,78.2,182.5,78.2,182.5,78.2z"/>
	<g>
		<path class="st4" d="M185.2,85c0.8,1.1,2.7,1.1,4.1,0.2c1.4-1,1.9-2.6,1-3.7c-0.8-1.1-2.7-1.1-4.1-0.2
			C184.8,82.3,184.3,84,185.2,85z"/>
		<path class="st1" d="M185.6,84.5c-0.1,0-0.1,0-0.2,0c-0.2-0.1-0.4-0.4-0.3-0.6c0.8-2.3,3.3-2.4,4.4-2.2c0.3,0.1,0.4,0.3,0.4,0.6
			c-0.1,0.3-0.3,0.4-0.6,0.4c-0.1,0-2.6-0.5-3.3,1.6C186,84.3,185.8,84.5,185.6,84.5z"/>
	</g>
	<path class="st1" d="M176.3,98.2c0,7.1,5.7,12.8,12.8,12.8c7.1,0,12.8-5.7,12.8-12.8c0-7.1-5.7-12.8-12.8-12.8
		C182.1,85.4,176.3,91.1,176.3,98.2z"/>
	<path class="st1" d="M192.7,245.4l-7-43.8c-3.3,5.8-7.3,13.1-11.8,23.1c-1.6,3.6-5.4,11.7-9.7,20.6h-34.6l40-91.4l29.1,3.9l8.5-3.9
		c17.8,24.1,8.1,24.4,14.7,69.9c0.6,3.8,1.6,12.1,2.8,21.5H192.7z"/>
	<g>
		<g>
			<path class="st1" d="M119.2,168.1c-0.2-0.2-0.1-0.6,0.1-0.8c0.2-0.2,0.6-0.2,0.8,0.1c0.2,0.2,0.2,0.6-0.1,0.8
				C119.8,168.4,119.4,168.4,119.2,168.1z"/>
		</g>
		<g>
			<path class="st1" d="M121.9,182.6c-0.1-0.1-0.1-0.3,0-0.4c0-0.1,0.1-0.1,0.1-0.2c0-0.1,0.1-0.1,0.2-0.1c0.3-0.1,0.6,0,0.8,0.2
				c0.1,0.3,0,0.6-0.2,0.8c-0.1,0-0.1,0.1-0.2,0.1c-0.1,0-0.1,0-0.2,0C122.1,182.9,122,182.8,121.9,182.6z"/>
		</g>
		<g>
			<path class="st1" d="M103.1,164.5c-0.1-0.3,0.1-0.6,0.4-0.7c0.3-0.1,0.6,0.1,0.7,0.4c0.1,0.3-0.1,0.6-0.4,0.7
				C103.5,165,103.2,164.8,103.1,164.5z"/>
		</g>
		<g>
			<path class="st1" d="M106.8,200.9c0-0.3,0.2-0.6,0.5-0.6c0.3,0,0.6,0.2,0.6,0.5c0,0.3-0.2,0.6-0.5,0.6
				C107.1,201.4,106.8,201.2,106.8,200.9z"/>
		</g>
		<g>
			<path class="st1" d="M83.9,191.5c0-0.2,0.1-0.3,0.2-0.4c0.1,0,0.1-0.1,0.2-0.1c0.1,0,0.1,0,0.2,0c0.3,0,0.5,0.3,0.5,0.6
				c0,0.3-0.3,0.5-0.6,0.5c-0.1,0-0.2,0-0.2-0.1c-0.1,0-0.1-0.1-0.2-0.1C84,191.8,83.9,191.6,83.9,191.5z"/>
		</g>
		<g>
			<path class="st1" d="M125.2,151.2c-0.2-0.2-0.3-0.5-0.2-0.8c0-0.1,0-0.3,0.1-0.4c0-0.1,0.1-0.1,0.1-0.2c0,0,0-0.1,0.1-0.1
				c0,0,0-0.1,0.1-0.1c0.2-0.2,0.5-0.3,0.8-0.3c0.3,0,0.5,0.1,0.8,0.3c0.2,0.2,0.3,0.5,0.3,0.8c0,0.3-0.1,0.6-0.4,0.8
				c0,0-0.1,0.1-0.1,0.1c0,0-0.1,0-0.1,0.1c-0.1,0-0.1,0.1-0.2,0.1c-0.1,0-0.3,0.1-0.4,0.1C125.7,151.5,125.4,151.4,125.2,151.2z"/>
		</g>
		<g>
			<path class="st1" d="M106,166.9c0-0.1,0-0.3,0-0.4c0-0.1,0.1-0.3,0.1-0.4c0.1-0.2,0.3-0.4,0.6-0.5c0.1,0,0.1,0,0.2,0
				c0.1,0,0.1,0,0.2,0c0.1,0,0.3,0,0.4,0.1c0.2,0.1,0.4,0.3,0.5,0.6c0.1,0.3,0.1,0.6-0.1,0.8c-0.1,0.1-0.2,0.2-0.3,0.3
				c-0.1,0-0.1,0.1-0.2,0.1c-0.1,0-0.1,0.1-0.2,0.1c-0.3,0.1-0.6,0.1-0.9-0.1c-0.1-0.1-0.2-0.2-0.3-0.3
				C106.1,167.2,106,167.1,106,166.9z"/>
		</g>
		<g>
			<path class="st1" d="M94.9,167.5c0-0.3,0.2-0.5,0.4-0.7c0.1-0.1,0.2-0.1,0.4-0.2c0.1,0,0.3-0.1,0.4,0c0.3,0,0.5,0.2,0.7,0.4
				c0.2,0.2,0.3,0.5,0.3,0.8c0,0.3-0.2,0.6-0.4,0.7c-0.2,0.2-0.5,0.3-0.8,0.2c-0.2,0-0.3-0.1-0.4-0.1c-0.1-0.1-0.2-0.2-0.3-0.3
				C95,168.1,94.9,167.8,94.9,167.5z"/>
		</g>
		<g>
			<path class="st1" d="M100.3,149.4c-0.2-0.4-0.1-0.8,0-1.2c0.1-0.2,0.2-0.4,0.3-0.5c0.1-0.1,0.3-0.3,0.5-0.4
				c0.1,0,0.2-0.1,0.3-0.1c0.1,0,0.2,0,0.3,0c0.2,0,0.4,0,0.6,0.1c0.2,0.1,0.4,0.2,0.5,0.3c0.2,0.1,0.3,0.3,0.4,0.5
				c0.1,0.2,0.2,0.4,0.2,0.6c0,0.2,0,0.4-0.1,0.6c-0.1,0.2-0.2,0.4-0.3,0.6c-0.1,0.1-0.2,0.2-0.2,0.2c-0.1,0.1-0.2,0.1-0.3,0.2
				c-0.2,0.1-0.4,0.2-0.7,0.2c-0.2,0-0.4,0-0.6-0.1C100.7,150.1,100.4,149.8,100.3,149.4z"/>
		</g>
	</g>
	<path class="st5" d="M211.8,38.2c0,1.9,1.6,3.5,3.5,3.5c1.9,0,3.5-1.6,3.5-3.5c0-1.9-1.6-3.5-3.5-3.5
		C213.4,34.7,211.8,36.3,211.8,38.2z"/>
	<path class="st2" d="M129.7,183.8c0,1.9,1.6,3.5,3.5,3.5c1.9,0,3.5-1.6,3.5-3.5c0-1.9-1.6-3.5-3.5-3.5
		C131.2,180.3,129.7,181.9,129.7,183.8z"/>
	<path class="st6" d="M43.8,67.2c0,1.9,1.6,3.5,3.5,3.5c1.9,0,3.5-1.6,3.5-3.5c0-1.9-1.6-3.5-3.5-3.5C45.3,63.7,43.8,65.3,43.8,67.2
		z"/>
	<g>
		<g>
			<path class="st1" d="M228.2,79.4c0.3-0.2,0.3-0.5,0.2-0.8c-0.2-0.3-0.5-0.4-0.8-0.2c-0.3,0.2-0.4,0.5-0.2,0.8
				C227.5,79.5,227.9,79.6,228.2,79.4z"/>
		</g>
		<g>
			<path class="st1" d="M244.5,81.8c0.2-0.2,0.1-0.6-0.1-0.8c-0.2-0.2-0.6-0.1-0.8,0.1c-0.2,0.2-0.1,0.6,0.1,0.8
				C244,82.1,244.3,82.1,244.5,81.8z"/>
		</g>
		<g>
			<path class="st1" d="M228.6,61.5c0.3-0.1,0.4-0.4,0.5-0.7c0-0.1,0.1-0.3,0-0.4c0-0.1,0-0.1,0-0.2c0,0,0-0.1,0-0.1
				c0,0,0-0.1,0-0.1c-0.1-0.3-0.4-0.4-0.6-0.5c-0.3-0.1-0.6-0.1-0.8,0c-0.3,0.1-0.5,0.4-0.5,0.6c-0.1,0.3-0.1,0.6,0.1,0.9
				c0,0,0,0.1,0.1,0.1c0,0,0,0.1,0.1,0.1c0,0.1,0.1,0.1,0.2,0.2c0.1,0.1,0.2,0.2,0.4,0.2C228,61.6,228.3,61.6,228.6,61.5z"/>
		</g>
		<g>
			<path class="st1" d="M226.1,100.4c0.1-0.1,0.1-0.3,0.2-0.4c0-0.1,0-0.3,0-0.4c0-0.3-0.2-0.5-0.4-0.7c-0.1,0-0.1-0.1-0.2-0.1
				c-0.1,0-0.1-0.1-0.2-0.1c-0.1,0-0.3-0.1-0.4,0c-0.3,0-0.5,0.1-0.7,0.4c-0.2,0.2-0.3,0.5-0.2,0.8c0,0.1,0.1,0.3,0.1,0.4
				c0,0.1,0.1,0.1,0.1,0.2c0,0.1,0.1,0.1,0.2,0.2c0.2,0.2,0.5,0.3,0.8,0.2c0.1,0,0.3-0.1,0.4-0.1C225.9,100.6,226,100.5,226.1,100.4
				z"/>
		</g>
		<g>
			<path class="st1" d="M251.1,87.6c0.1-0.3,0-0.6-0.1-0.8c-0.1-0.1-0.2-0.2-0.3-0.3c-0.1-0.1-0.2-0.1-0.4-0.2
				c-0.3-0.1-0.6,0-0.8,0.1c-0.2,0.1-0.4,0.4-0.5,0.6c-0.1,0.3,0,0.6,0.1,0.8c0.1,0.2,0.4,0.4,0.7,0.5c0.2,0,0.3,0.1,0.4,0
				c0.1,0,0.3-0.1,0.4-0.1C250.8,88.1,251,87.8,251.1,87.6z"/>
		</g>
	</g>
	<g>
		<defs>
			
				<rect id="SVGID_1_" x="60" y="130.4" transform="matrix(-1 -1.224647e-16 1.224647e-16 -1 141.3938 282.2654)" width="21.4" height="21.4"/>
		</defs>
		<clipPath id="SVGID_00000010303892188091385270000010986560738586362521_">
			<use xlink:href="#SVGID_1_"  style="overflow:visible;"/>
		</clipPath>
		
			<rect x="60" y="130.4" style="clip-path:url(#SVGID_00000010303892188091385270000010986560738586362521_);fill:#73C0AE;" width="21.4" height="21.4"/>
	</g>
	<path class="st3" d="M173.9,85.8c0.2-0.9,0.6-1.9,0.9-3l2.5,1.3c0.5,0.2,0.6,0.9,0.2,1.1c-0.6,0.4-1.8,1.2-2.9,0.9
		C174.4,86.1,174.1,86,173.9,85.8z"/>
	<path class="st4" d="M151.1,91.6c-1.7-4.7-4.7-3.7-5.5-1.8c-0.6,1.4,1.3,5.7,2,8.1c0.2,0.7-0.5,1.3-1.1,0.9
		c-1.1-0.6-2.5-1.5-3.1-2.4l-3.9-4.1c-0.2,3.1-0.8,7.9,1.3,10.5c-1.4,2.1,0.7,4.7,1.9,6.2c2.8,3.3,5.5,6.2,5.5,6.2l9.1-5
		c0,0,2-4.9,0.6-8.4C156.5,98.2,152.7,96.3,151.1,91.6z"/>
	<path class="st6" d="M139.3,141.3c1.2-18.6,1.8-27.9,1.8-27.9l17.3-5.3l0.4,2.7c0,0,2.4-2.1,3.2-2.9c4.8-4.9,12-7.6,29-7.2
		c4.5,0.1,8.1,0.2,12.5,1.2c8.5,1.9,11.7,3.2,30,18.6c5.5,4.6,14.9,16.7,8.8,23.9c-3.1,3.7-6,6.5-6,6.5l-8.3-9.4l-12.6-7l0,28.4
		h-52.3l0.5-3.5c0,0-4.2,2.1-9.1,2.6C143.9,162.9,138.6,152.4,139.3,141.3z"/>
	<path class="st1" d="M146.9,146c0,0-0.1,0-0.1,0c-0.3-0.1-0.4-0.3-0.4-0.6c6.5-29.6,11.8-34.8,12.1-35c0.2-0.2,0.5-0.2,0.7,0
		c0.2,0.2,0.2,0.5,0,0.7c-0.1,0.1-5.5,5.4-11.8,34.5C147.3,145.9,147.1,146,146.9,146z"/>
	<path class="st1" d="M163.5,159.8c0,0-0.1,0-0.1,0c-0.2-0.1-0.4-0.3-0.3-0.6c3-10.5,7.5-26.4,7.7-27.4c0-0.2,0.1-0.4,0.4-0.5
		c0.3-0.1,0.5,0.1,0.6,0.4c0,0.1,0.1,0.6-7.7,27.8C163.9,159.7,163.7,159.8,163.5,159.8z"/>
	<path class="st1" d="M145.5,136.8c-0.1,0-0.2,0-0.3-0.1c-0.2-0.1-0.3-0.4-0.1-0.7l2.7-4.2c0.1-0.2,0.4-0.3,0.6-0.1
		c0.2,0.1,0.3,0.4,0.1,0.6l-2.7,4.2C145.8,136.7,145.6,136.8,145.5,136.8z"/>
	<path class="st1" d="M215.3,135C215.3,135,215.3,135,215.3,135c-0.3,0-0.5-0.3-0.5-0.5l1.9-12.1c0-0.3,0.3-0.4,0.5-0.4
		c0.3,0,0.4,0.3,0.4,0.5l-1.9,12.1C215.8,134.8,215.6,135,215.3,135z"/>
	<path class="st1" d="M194.9,87.6l13.5-2.9c0,0-4,8.9,1.1,14.3c7,7.4,10,19.5,0.2,26.2c-4.4,3-11.6,3.7-16.4,1.3
		c-7.5-3.7-8.1-12.7-8.9-20.1c-0.6-5.9-7.7-5.4-7.7-5.4L194.9,87.6z"/>
	<path class="st3" d="M185.7,202.1c-0.1,0-0.2,0-0.2-0.1c-0.2-0.1-0.3-0.4-0.2-0.6l5.7-10.3c1.3-2.3,3.2-4.1,5.5-5.3l7.8-4.1
		c0.2-0.1,0.5,0,0.6,0.2c0.1,0.2,0,0.5-0.2,0.6l-7.8,4.1c-2.1,1.1-3.9,2.8-5.1,5l-5.7,10.3C186.1,202,185.9,202.1,185.7,202.1z"/>
	<g>
		<path class="st6" d="M107.7,68.8h-32c-2.6,0-4.7-2.1-4.7-4.7V40.9c0-2.6,2.1-4.7,4.7-4.7h32c2.6,0,4.7,2.1,4.7,4.7v23.2
			C112.4,66.7,110.3,68.8,107.7,68.8z"/>
		<path class="st5" d="M112.4,64.1V53.7c0,0-6.3,8.6-20.7,0.1c-14.4-8.5-20.7-0.3-20.7,0v10.3c0,2.6,2.1,4.7,4.7,4.7h32
			C110.3,68.8,112.4,66.7,112.4,64.1z"/>
		<path class="st3" d="M106.9,44.1c0,1.8-1.5,3.3-3.3,3.3s-3.3-1.5-3.3-3.3c0-1.8,1.5-3.3,3.3-3.3S106.9,42.3,106.9,44.1z"/>
	</g>
	<g>
		<path class="st1" d="M90.7,77.9H74.6c-0.3,0-0.5-0.2-0.5-0.5c0-0.3,0.2-0.5,0.5-0.5h16.1c0.3,0,0.5,0.2,0.5,0.5
			C91.2,77.7,91,77.9,90.7,77.9z"/>
		<path class="st1" d="M90.7,83H74.6c-0.3,0-0.5-0.2-0.5-0.5c0-0.3,0.2-0.5,0.5-0.5h16.1c0.3,0,0.5,0.2,0.5,0.5
			C91.2,82.8,91,83,90.7,83z"/>
		<g>
			<path class="st1" d="M90.7,91.2H74.6c-0.3,0-0.5-0.2-0.5-0.5c0-0.3,0.2-0.5,0.5-0.5h16.1c0.3,0,0.5,0.2,0.5,0.5
				C91.2,91,91,91.2,90.7,91.2z"/>
			<path class="st1" d="M90.7,96.2H74.6c-0.3,0-0.5-0.2-0.5-0.5s0.2-0.5,0.5-0.5h16.1c0.3,0,0.5,0.2,0.5,0.5S91,96.2,90.7,96.2z"/>
		</g>
	</g>
	<path class="st1" d="M135.8,76.2c-0.3,0-0.5-0.2-0.5-0.5V36.2c0-0.3,0.2-0.5,0.5-0.5s0.5,0.2,0.5,0.5v39.5
		C136.3,75.9,136.1,76.2,135.8,76.2z"/>
	<g>
		<path class="st1" d="M177.4,29c-0.1,0-0.2,0-0.3-0.1c-0.2-0.2-0.2-0.5,0-0.7l5.1-5.1c0.2-0.2,0.5-0.2,0.7,0c0.2,0.2,0.2,0.5,0,0.7
			l-5.1,5.1C177.6,28.9,177.5,29,177.4,29z"/>
		<path class="st1" d="M182.5,29c-0.1,0-0.2,0-0.3-0.1l-5.1-5.1c-0.2-0.2-0.2-0.5,0-0.7c0.2-0.2,0.5-0.2,0.7,0l5.1,5.1
			c0.2,0.2,0.2,0.5,0,0.7C182.8,28.9,182.7,29,182.5,29z"/>
	</g>
	<path class="st1" d="M191.7,32.6H61.5c-0.3,0-0.5-0.2-0.5-0.5c0-0.3,0.2-0.5,0.5-0.5h130.1c0.3,0,0.5,0.2,0.5,0.5
		C192.2,32.4,192,32.6,191.7,32.6z"/>
	<path class="st1" d="M228,142c-0.2,0-0.4-0.1-0.5-0.3c-0.1-0.3,0.1-0.5,0.3-0.6l10.9-3.1c0.3-0.1,0.5,0.1,0.6,0.3
		c0.1,0.3-0.1,0.5-0.3,0.6l-10.9,3.1C228.1,142,228,142,228,142z"/>
	<path class="st1" d="M218.3,128.9c-0.1,0-0.2,0-0.3-0.1c-0.2-0.1-0.3-0.4-0.1-0.7l2.1-3.3c0.1-0.2,0.4-0.3,0.6-0.1
		c0.2,0.1,0.3,0.4,0.1,0.7l-2.1,3.3C218.6,128.9,218.5,128.9,218.3,128.9z"/>
	<path class="st1" d="M144.6,107.2c-0.1,0-0.2,0-0.3-0.1l-3.8-3.9c-0.2-0.2-0.2-0.5,0-0.7c0.2-0.2,0.5-0.2,0.7,0l3.8,3.9
		c0.2,0.2,0.2,0.5,0,0.7C144.8,107.1,144.7,107.2,144.6,107.2z"/>
	<g>
		<defs>
			<path id="SVGID_00000141445137998974010360000001046384326866916761_" d="M139.3,141.3c1.2-18.6,1.8-27.9,1.8-27.9l17.3-5.3
				l0.4,2.7c0,0,2.4-2.1,3.2-2.9c4.8-4.9,12-7.6,29-7.2c4.5,0.1,8.1,0.2,12.5,1.2c8.5,1.9,11.7,3.2,30,18.6
				c5.5,4.6,14.9,16.7,8.8,23.9c-3.1,3.7-6,6.5-6,6.5l-8.3-9.4l-12.6-7l0,28.4h-52.3l0.5-3.5c0,0-4.2,2.1-9.1,2.6
				C143.9,162.9,138.6,152.4,139.3,141.3z"/>
		</defs>
		<clipPath id="SVGID_00000064347655689360454730000001988178274445020804_">
			<use xlink:href="#SVGID_00000141445137998974010360000001046384326866916761_"  style="overflow:visible;"/>
		</clipPath>
	</g>
	<g>
		<defs>
			
				<ellipse id="SVGID_00000106109519323654623610000010168883210218263686_" transform="matrix(0.1602 -0.9871 0.9871 0.1602 83.0839 258.2903)" cx="193.3" cy="80.3" rx="15.6" ry="15.6"/>
		</defs>
		<clipPath id="SVGID_00000034059512606979189820000005392778604265885076_">
			<use xlink:href="#SVGID_00000106109519323654623610000010168883210218263686_"  style="overflow:visible;"/>
		</clipPath>
	</g>
</g>
</svg>
