<?xml version="1.0" encoding="utf-8"?>
<!-- Generator: Adobe Illustrator 26.3.1, SVG Export Plug-In . SVG Version: 6.00 Build 0)  -->
<svg version="1.1" id="sv" xmlns="http://www.w3.org/2000/svg" xmlns:xlink="http://www.w3.org/1999/xlink" x="0px" y="0px"
	 viewBox="0 0 303.8 259.6" style="enable-background:new 0 0 303.8 259.6;" xml:space="preserve">
<style type="text/css">
	.st0{fill:#FFAEC1;}
	.st1{fill:#73C0AE;}
	.st2{fill:#FFFFFF;}
	.st3{fill:#EA6F46;}
	.st4{fill:#EDAD6D;}
	.st5{fill-rule:evenodd;clip-rule:evenodd;fill:#EDAD6D;}
	.st6{fill:#33384D;}
	.st7{fill-rule:evenodd;clip-rule:evenodd;fill:#33384D;}
	.st8{fill:#E87485;}
	.st9{fill-rule:evenodd;clip-rule:evenodd;fill:#FFAEC1;}
	.st10{clip-path:url(#SVGID_00000132802370843389141710000001492576013547427765_);fill:#FFC050;}
	.st11{clip-path:url(#SVGID_00000132802370843389141710000001492576013547427765_);fill:#73C0AE;}
</style>
<g>
	<polygon class="st0" points="114,93.1 116.8,97.9 123,94.9 122.3,84.2 	"/>
	<path class="st1" d="M118.8,94.4h-45c-3.6,0-6.6-3-6.6-6.6V55.1c0-3.6,3-6.6,6.6-6.6h45c3.6,0,6.6,3,6.6,6.6v32.6
		C125.4,91.4,122.4,94.4,118.8,94.4z"/>
	<path class="st2" d="M117.7,59.7c0,2.5-2.1,4.6-4.6,4.6s-4.6-2.1-4.6-4.6c0-2.5,2.1-4.6,4.6-4.6S117.7,57.1,117.7,59.7z"/>
	<path class="st3" d="M125.4,87.8V73.2c0,0-8.9,12.1-29.1,0.1c-20.2-11.9-29.1-0.4-29.1,0v14.5c0,3.6,3,6.6,6.6,6.6h45
		C122.4,94.4,125.4,91.4,125.4,87.8z"/>
	<path class="st0" d="M129.9,92.7c0,0,0.9-6.9,0.7-8.7c-0.4-3.6-2.3-5.5-3.9-9.3c-1.6-3.7-5.3-1.7-3.5,1.9c1.5,3.1,0.9,6.7,0.5,6.9
		c-0.4,0.2-5.4,7-2.6,13.3L129.9,92.7z"/>
	<path class="st4" d="M126.5,161.9c0,1.9-1.6,3.5-3.5,3.5c-1.9,0-3.5-1.6-3.5-3.5c0-1.9,1.6-3.5,3.5-3.5
		C124.9,158.4,126.5,159.9,126.5,161.9z"/>
	<path class="st1" d="M224.2,61.9c0,1.9-1.6,3.5-3.5,3.5c-1.9,0-3.5-1.6-3.5-3.5c0-1.9,1.6-3.5,3.5-3.5
		C222.6,58.4,224.2,59.9,224.2,61.9z"/>
	<g>
		<path class="st5" d="M223.9,249.1h-27.7c-8.1-47.3-8.9-59.6-8.9-59.6s-3,39.6-4.1,59.9l-28.1-0.3c-1.6-41.9,3.1-92.9,3.1-92.9
			l13.3-3.6l15.6-0.4l31,0.5L223.9,249.1z"/>
	</g>
	<path class="st6" d="M187.7,197.3c-0.2,0-0.4-0.2-0.5-0.4l-1.6-13.1c-0.4-3.1-1.7-6-3.7-8.3l-2.3-2.6c-0.2-0.2-0.1-0.5,0-0.7
		c0.2-0.2,0.5-0.1,0.7,0l2.3,2.6c2.2,2.5,3.5,5.6,3.9,8.9l1.6,13.1C188.2,197,188,197.2,187.7,197.3
		C187.7,197.3,187.7,197.3,187.7,197.3z"/>
	<path class="st7" d="M135.3,90.1l5.6,17.8c2.3-4.3,11.5-16.8,17.1-21.1c7.1-5.5,21.7-6.1,21.7-6.1s12.5-0.3,15.6-0.1
		c5.2,0.4,24.2,1.3,31.4,13.3c5.2,8.7,14.7,26.8,10.9,38.6c-3.5,10.9-19.7,7.7-19.7,7.7s1.8,19.3,1.7,19.3l-9-0.1
		c-1.8,0.1-27.9,0.1-27.5,0c0,0,0,0,0.1-0.1l-25.8,0.3l0.9-25.9c-0.2,12.2-14.4,14.1-19.3,11.9c-16.3-7.2-17.5-29.1-24.4-48.9
		L135.3,90.1z"/>
	<path class="st2" d="M157.9,139.4c-0.3,0-0.5-0.2-0.5-0.5c0-0.2,0.4-22.8,1.9-37.2c0-0.3,0.3-0.4,0.5-0.4c0.3,0,0.4,0.3,0.4,0.5
		c-1.5,14.4-1.9,36.9-1.9,37.1C158.3,139.2,158.1,139.4,157.9,139.4z"/>
	<path class="st2" d="M145.2,119.2c-0.2,0-0.4-0.1-0.4-0.3l-4.3-10.8c-0.1-0.2,0-0.5,0.3-0.6c0.2-0.1,0.5,0,0.6,0.3l4.3,10.8
		c0.1,0.2,0,0.5-0.3,0.6C145.3,119.2,145.3,119.2,145.2,119.2z"/>
	<path class="st6" d="M147.4,111.2c-0.1,0-0.2,0-0.2-0.1l-4.3-2.4c-0.2-0.1-0.3-0.4-0.2-0.6c0.1-0.2,0.4-0.3,0.6-0.2l4.3,2.4
		c0.2,0.1,0.3,0.4,0.2,0.6C147.7,111.1,147.6,111.2,147.4,111.2z"/>
	<path class="st2" d="M212.4,118.5c-0.2,0-0.4-0.2-0.5-0.4l-3.2-15.9c-0.1-0.3,0.1-0.5,0.4-0.6c0.3-0.1,0.5,0.1,0.6,0.4l3.2,15.9
		C212.9,118.2,212.8,118.4,212.4,118.5C212.5,118.5,212.5,118.5,212.4,118.5z"/>
	<path class="st0" d="M179,53.2c0.4-0.8,0.7-1.5,1-2c0.4-0.7,1.1-1,1.9-0.9c2.9,0.6,9.4,2.6,11.1,3.8c1.8,1.4,0.1,7.3-1.9,10.9
		c-0.2,0.4-0.4,0.7-0.5,1.1l1.9,2.2l4.4,12.4l-13.8,2.8l-1.5-1.3l-2-9.5C172.4,69.1,176.4,58.5,179,53.2z"/>
	<path class="st6" d="M181,57.3c-0.1,0-0.3-0.1-0.3-0.2c0,0-0.8-0.8-1.7-0.5c-0.2,0.1-0.5,0-0.6-0.3c-0.1-0.2,0-0.5,0.3-0.6
		c1.5-0.5,2.6,0.7,2.7,0.8c0.2,0.2,0.2,0.5,0,0.7C181.3,57.2,181.1,57.3,181,57.3z"/>
	<g>
		<path class="st6" d="M187.2,60.2c-0.2,0-0.4-0.2-0.5-0.4c0-0.2-0.4-1.5-2.3-1.2c-0.3,0-0.5-0.1-0.5-0.4c0-0.3,0.1-0.5,0.4-0.5
			c2.3-0.4,3.2,1.1,3.4,2C187.7,59.9,187.5,60.2,187.2,60.2C187.2,60.2,187.2,60.2,187.2,60.2z"/>
		<path class="st6" d="M185.5,61.3c0.1-0.2,0.2-0.5,0.3-0.7c0.1-0.2,0-0.5-0.2-0.5c0,0-0.1,0-0.1,0c-0.1,0-0.3,0-0.3,0.1
			c0,0.1-0.1,0.1-0.1,0.1c-0.1,0.2-0.2,0.5-0.3,0.7c-0.1,0.3-0.2,0.4-0.1,0.7c0.1,0.2,0.3,0.3,0.5,0.2
			C185.4,61.7,185.4,61.5,185.5,61.3z"/>
		<path class="st6" d="M179.2,59c0.1-0.2,0.2-0.5,0.3-0.7c0.1-0.2,0-0.5-0.2-0.5c0,0-0.1,0-0.1,0c-0.1,0-0.3,0-0.3,0.1
			c0,0.1-0.1,0.1-0.1,0.1c-0.1,0.2-0.2,0.5-0.3,0.7c-0.1,0.3-0.2,0.4-0.1,0.7c0.1,0.2,0.3,0.3,0.5,0.2
			C179.1,59.5,179.1,59.3,179.2,59z"/>
	</g>
	<path class="st2" d="M179.9,66.1c-0.4,0.1-0.5,0.6-0.2,0.9c0.6,0.5,1.7,1.3,2.8,0.6c0.7-0.4,0.8-1.5,0.9-2.1c0-0.4-0.4-0.7-0.7-0.5
		L179.9,66.1z"/>
	<path class="st6" d="M178,65c-0.2,0-0.4-0.1-0.4-0.3c-0.1-0.2-0.8-2,0-3.1c0.7-0.9,3.4-4.8,3.4-4.8c0.2-0.2,0.4-0.3,0.7-0.1
		c0.2,0.1,0.3,0.4,0.1,0.7c-0.1,0.2-2.8,4-3.4,4.9c-0.4,0.6-0.1,1.8,0.1,2.2c0.1,0.2,0,0.5-0.3,0.6C178.2,65,178.1,65,178,65z"/>
	<path class="st8" d="M184.2,72.6c0.6-0.1,1,0.4,0.8,1l-3.9,6l-1.6-6.9L184.2,72.6z"/>
	<path class="st6" d="M185.1,44.5c4-0.5,5.3,2.6,5.3,2.6s8-0.9,11.8,7c3,6.2-0.6,11.8-8,18.8c0,0-2.9-1.7-3.7-4.8
		c-0.2-0.9,0.1-2,0.6-3c0.7-1.2,1.4-2.8,1.8-4.3c-1.2-0.5-2-1.9-2-3.7c0-1.4,0.6-2.6,1.4-3.3c-2.3-1.2-7.8-2.9-10.4-3.4
		c-0.7-0.2-1.5,0.2-1.9,0.9c-0.3,0.5-0.6,1.2-1,2C178.1,51.8,178,45.3,185.1,44.5z"/>
	<g>
		<path class="st0" d="M189.5,67.4c0.8,1,2.6,1.1,3.9,0.2c1.4-0.9,1.8-2.5,1-3.5c-0.8-1-2.6-1.1-3.9-0.2
			C189.1,64.8,188.7,66.3,189.5,67.4z"/>
		<path class="st6" d="M189.9,66.8c-0.1,0-0.1,0-0.2,0c-0.2-0.1-0.4-0.4-0.3-0.6c0.8-2.2,3.1-2.3,4.3-2.1c0.3,0.1,0.4,0.3,0.4,0.6
			c-0.1,0.3-0.3,0.4-0.6,0.4c-0.1,0-2.5-0.5-3.2,1.5C190.3,66.7,190.1,66.8,189.9,66.8z"/>
	</g>
	<path class="st9" d="M201.8,81.2c-2.8-0.4-5.1-0.5-6.5-0.6c-3.1-0.2-15.6,0.1-15.6,0.1s-3.1,0.1-7.2,0.8l0.6,1c0,0,4.8,7.7,13.8,7
		C193.6,89,199.2,83.9,201.8,81.2z"/>
	<path class="st3" d="M185.7,131.5H150c-2.6,0-4.7-2.1-4.7-4.7v-20c0-2.6,2.1-4.7,4.7-4.7h35.7c2.6,0,4.7,2.1,4.7,4.7v20
		C190.3,129.4,188.2,131.5,185.7,131.5z"/>
	<path class="st2" d="M162.9,124.2h11.4c1.3,0,2.2-1.4,1.6-2.6l-5.8-10.9c-0.7-1.3-2.5-1.3-3.2,0l-5.6,10.9
		C160.7,122.8,161.5,124.2,162.9,124.2z"/>
	<g>
		<path class="st9" d="M197.4,126.9l-0.9-9.8c-1.1-3.3-3.6-6.4-5.1-7.4c-3.3-2.1-14.9,3.9-13,7.1c0.4,0.7,4.4-0.8,1.8,0.1
			c-0.9,0.6-1.5,1.1-1.5,1.6c-0.1,1.6,2.8,1.7,2.8,1.7s-1.3,2-0.4,3.3c0.9,1.3,1.6,1.3,1.6,1.3s-2,1.8,0.4,2.3s7.2-1.2,7.2-1.2
			s2.7,6.8,7.9,6.8L197.4,126.9z"/>
		<path class="st6" d="M180.3,117.4c-0.2,0-0.3-0.1-0.4-0.3c-0.1-0.2,0-0.5,0.2-0.6l6.5-3c0.2-0.1,0.5,0,0.6,0.2
			c0.1,0.2,0,0.5-0.2,0.6l-6.5,3C180.4,117.4,180.4,117.4,180.3,117.4z"/>
		<path class="st6" d="M181.6,120.6c-0.2,0-0.4-0.1-0.4-0.3c-0.1-0.2,0-0.5,0.2-0.6l7.6-3.3c0.2-0.1,0.5,0,0.6,0.2
			c0.1,0.2,0,0.5-0.2,0.6l-7.6,3.3C181.8,120.6,181.7,120.6,181.6,120.6z"/>
		<path class="st6" d="M182.8,125.1c-0.2,0-0.3-0.1-0.4-0.3c-0.1-0.2,0-0.5,0.2-0.6l7.1-3.3c0.2-0.1,0.5,0,0.6,0.2
			c0.1,0.2,0,0.5-0.2,0.6l-7.1,3.3C183,125.1,182.9,125.1,182.8,125.1z"/>
	</g>
	<path class="st2" d="M218.2,140.8c0,0-18.9-0.8-18.9-0.8c-0.2,0-0.4-0.2-0.4-0.4l-2.8-22.4c0-0.1,0-0.3,0.1-0.4
		c0.1-0.1,0.2-0.2,0.4-0.1l23.7,1.6c0.3,0,0.5,0.2,0.4,0.5c0,0.3-0.2,0.5-0.5,0.4l-23.1-1.6l2.6,21.4l18.5,0.7
		c0.3,0,0.5,0.2,0.5,0.5C218.7,140.6,218.5,140.8,218.2,140.8z"/>
	<g>
		<path class="st4" d="M159.6,9.8h-37.4c-2.9,0-5.2,2.4-5.2,5.2v7.1c0,2.9,2.4,5.2,5.2,5.2v5.9l7.9-5.9h29.5c2.9,0,5.2-2.4,5.2-5.2
			V15C164.9,12.2,162.5,9.8,159.6,9.8z"/>
		<path class="st2" d="M130.3,18.6c0,1.3-1.1,2.4-2.4,2.4c-1.3,0-2.4-1.1-2.4-2.4c0-1.3,1.1-2.4,2.4-2.4
			C129.2,16.2,130.3,17.2,130.3,18.6z"/>
		<path class="st2" d="M143.3,18.6c0,1.3-1.1,2.4-2.4,2.4c-1.3,0-2.4-1.1-2.4-2.4c0-1.3,1.1-2.4,2.4-2.4
			C142.3,16.2,143.3,17.2,143.3,18.6z"/>
		<path class="st2" d="M156.4,18.6c0,1.3-1.1,2.4-2.4,2.4s-2.4-1.1-2.4-2.4c0-1.3,1.1-2.4,2.4-2.4S156.4,17.2,156.4,18.6z"/>
	</g>
	<g>
		<defs>
			<path id="SVGID_1_" d="M65,157.8h25.9c0-14.3-11.6-25.8-25.9-25.8V157.8z"/>
		</defs>
		<clipPath id="SVGID_00000168832503310569792210000015790558854912810632_">
			<use xlink:href="#SVGID_1_"  style="overflow:visible;"/>
		</clipPath>
		<path style="clip-path:url(#SVGID_00000168832503310569792210000015790558854912810632_);fill:#FFC050;" d="M65,157.8h25.9
			c0-14.3-11.6-25.8-25.9-25.8V157.8z"/>
		<path style="clip-path:url(#SVGID_00000168832503310569792210000015790558854912810632_);fill:#73C0AE;" d="M65,157.8h25.9
			c0-14.3-11.6-25.8-25.9-25.8V157.8z"/>
	</g>
	<path class="st6" d="M79.8,145.6c-0.1,0-0.2,0-0.2-0.1c-0.1-0.1-0.1-0.3,0-0.5l16.2-14.8c0.1-0.1,0.3-0.1,0.5,0
		c0.1,0.1,0.1,0.3,0,0.5L80,145.5C80,145.5,79.9,145.6,79.8,145.6z"/>
	<g>
		<g>
			<path class="st6" d="M99.5,197.4c-0.1,0.3-0.4,0.4-0.7,0.3c-0.3-0.1-0.4-0.4-0.3-0.7c0.1-0.3,0.4-0.4,0.7-0.3
				C99.5,196.8,99.6,197.1,99.5,197.4z"/>
		</g>
		<g>
			<path class="st6" d="M110.6,187.6c-0.1,0.1-0.2,0.2-0.4,0.2c-0.1,0-0.1,0-0.2,0c-0.1,0-0.1,0-0.2-0.1c-0.3-0.2-0.3-0.5-0.2-0.8
				c0.2-0.3,0.5-0.4,0.8-0.2c0.1,0,0.1,0.1,0.2,0.2c0,0.1,0.1,0.1,0.1,0.2C110.7,187.4,110.6,187.5,110.6,187.6z"/>
		</g>
		<g>
			<path class="st6" d="M104.8,213.1c-0.2,0.2-0.6,0.2-0.8,0c-0.2-0.2-0.2-0.6,0-0.8c0.2-0.2,0.6-0.2,0.8,0
				C105,212.5,105,212.9,104.8,213.1z"/>
		</g>
		<g>
			<path class="st6" d="M134,191.1c-0.3,0.2-0.6,0.1-0.8-0.1c-0.2-0.2-0.1-0.6,0.1-0.8c0.2-0.2,0.6-0.2,0.8,0.1
				C134.3,190.6,134.3,191,134,191.1z"/>
		</g>
		<g>
			<path class="st6" d="M137.8,215.6c-0.1,0.1-0.3,0.1-0.4,0c-0.1,0-0.1-0.1-0.2-0.1c-0.1,0-0.1-0.1-0.1-0.2c-0.1-0.3,0-0.6,0.2-0.7
				c0.3-0.1,0.6,0,0.8,0.2c0,0.1,0.1,0.1,0.1,0.2c0,0.1,0,0.1,0,0.2C138,215.4,137.9,215.6,137.8,215.6z"/>
		</g>
		<g>
			<path class="st6" d="M81.9,201c-0.1,0.3-0.3,0.5-0.6,0.6c-0.1,0.1-0.3,0.1-0.4,0.1c-0.1,0-0.1,0-0.2,0c0,0-0.1,0-0.1,0
				c0,0-0.1,0-0.1,0c-0.3-0.1-0.5-0.3-0.6-0.5c-0.1-0.2-0.2-0.5-0.1-0.8c0.1-0.3,0.3-0.5,0.5-0.6c0.2-0.1,0.6-0.2,0.9-0.1
				c0,0,0.1,0,0.1,0c0,0,0.1,0,0.1,0.1c0.1,0,0.1,0.1,0.2,0.1c0.1,0.1,0.2,0.2,0.3,0.3C82,200.5,82,200.7,81.9,201z"/>
		</g>
		<g>
			<path class="st6" d="M111.6,218.6c-0.3,0.1-0.6,0.1-0.8,0c-0.1-0.1-0.2-0.1-0.3-0.2c-0.1-0.1-0.2-0.2-0.2-0.3
				c-0.1-0.3-0.1-0.5,0-0.8c0.1-0.3,0.3-0.5,0.5-0.6c0.3-0.1,0.6-0.1,0.8,0c0.3,0.1,0.5,0.3,0.6,0.6c0.1,0.1,0.1,0.3,0.1,0.4
				c0,0.1,0,0.3-0.1,0.4C112,218.2,111.8,218.4,111.6,218.6z"/>
		</g>
		<g>
			<path class="st6" d="M93.2,223.3c-0.3,0.3-0.7,0.6-1,0.6c-0.2,0-0.4,0-0.6,0c-0.2,0-0.4-0.1-0.6-0.2c-0.1-0.1-0.2-0.1-0.2-0.2
				c-0.1-0.1-0.1-0.1-0.2-0.2c-0.1-0.2-0.2-0.3-0.2-0.5c0-0.2-0.1-0.4,0-0.6c0-0.2,0.1-0.4,0.2-0.6c0.1-0.2,0.2-0.4,0.4-0.5
				c0.2-0.1,0.4-0.2,0.6-0.3c0.2,0,0.4-0.1,0.6,0c0.1,0,0.2,0,0.3,0.1c0.1,0,0.2,0.1,0.3,0.2c0.2,0.1,0.4,0.3,0.5,0.5
				c0.1,0.2,0.2,0.4,0.2,0.6C93.6,222.6,93.5,223,93.2,223.3z"/>
		</g>
	</g>
	<g>
		<g>
			<path class="st6" d="M169.5,33.2c-0.3-0.1-0.5-0.4-0.4-0.7c0.1-0.3,0.3-0.5,0.6-0.4c0.3,0.1,0.5,0.4,0.5,0.7
				C170.1,33.1,169.8,33.3,169.5,33.2z"/>
		</g>
		<g>
			<path class="st6" d="M166.8,54.4c-0.1-0.1-0.2-0.2-0.3-0.3c0-0.1,0-0.1,0-0.2c0-0.1,0-0.1,0-0.2c0.1-0.3,0.4-0.4,0.7-0.3
				c0.3,0.1,0.4,0.4,0.3,0.7c0,0.1-0.1,0.1-0.1,0.2c-0.1,0.1-0.1,0.1-0.2,0.1C167.1,54.5,167,54.5,166.8,54.4z"/>
		</g>
		<g>
			<path class="st6" d="M146.6,51.9c-0.3-0.2-0.3-0.5-0.2-0.8c0.2-0.3,0.5-0.3,0.8-0.2c0.3,0.2,0.3,0.5,0.2,0.8
				C147.2,52,146.9,52.1,146.6,51.9z"/>
		</g>
		<g>
			<path class="st6" d="M160,64.8c-0.2-0.2-0.2-0.6,0-0.8c0.2-0.2,0.6-0.2,0.8,0c0.2,0.2,0.2,0.6,0,0.8C160.6,65,160.3,65,160,64.8z
				"/>
		</g>
		<g>
			<path class="st6" d="M132.5,39.9c-0.2-0.3-0.1-0.6,0.1-0.8c0.2-0.2,0.6-0.1,0.8,0.1c0.2,0.2,0.1,0.6-0.1,0.8
				C133.1,40.3,132.7,40.2,132.5,39.9z"/>
		</g>
		<g>
			<path class="st6" d="M161.5,48.3c-0.3-0.1-0.5-0.3-0.7-0.5c-0.1-0.2-0.2-0.5-0.1-0.8c0.1-0.3,0.2-0.5,0.5-0.7
				c0.2-0.2,0.5-0.2,0.8-0.2c0.3,0.1,0.5,0.2,0.7,0.5c0.2,0.2,0.2,0.5,0.1,0.8c-0.1,0.3-0.2,0.6-0.5,0.7
				C162.1,48.4,161.8,48.4,161.5,48.3z"/>
		</g>
		<g>
			<path class="st6" d="M145.6,58c-0.2-0.2-0.4-0.4-0.4-0.7c0-0.3,0-0.6,0.2-0.8c0.2-0.2,0.4-0.4,0.7-0.4c0.3,0,0.6,0,0.8,0.2
				c0.2,0.2,0.4,0.4,0.4,0.7c0,0.3,0,0.6-0.2,0.8c-0.2,0.2-0.5,0.4-0.7,0.4C146.1,58.2,145.8,58.2,145.6,58z"/>
		</g>
	</g>
	<g>
		<defs>
			<path id="SVGID_00000107563721862647780650000015379444928922826653_" d="M135.3,90.1l5.6,17.8c2.3-4.3,11.5-16.8,17.1-21.1
				c7.1-5.5,21.7-6.1,21.7-6.1s12.5-0.3,15.6-0.1c5.2,0.4,24.2,1.3,31.4,13.3c5.2,8.7,14.7,26.8,10.9,38.6
				c-3.5,10.9-19.7,7.7-19.7,7.7s1.8,19.3,1.7,19.3l-9-0.1c-1.8,0.1-27.9,0.1-27.5,0c0,0,0,0,0.1-0.1l-25.8,0.3l0.9-25.9
				c-0.2,12.2-14.4,14.1-19.3,11.9c-16.3-7.2-17.5-29.1-24.4-48.9L135.3,90.1z"/>
		</defs>
		<clipPath id="SVGID_00000161627137854165224180000007489137956062763652_">
			<use xlink:href="#SVGID_00000107563721862647780650000015379444928922826653_"  style="overflow:visible;"/>
		</clipPath>
	</g>
	<g>
		<defs>
			<path id="SVGID_00000176723011218679622540000012827383189268214719_" d="M185.1,44.5c4-0.5,5.3,2.6,5.3,2.6s8-0.9,11.8,7
				c3,6.2-0.6,11.8-8,18.8c0,0-2.9-1.7-3.7-4.8c-0.2-0.9,0.1-2,0.6-3c0.7-1.2,1.4-2.8,1.8-4.3c-1.2-0.5-2-1.9-2-3.7
				c0-1.4,0.6-2.6,1.4-3.3c-2.3-1.2-7.8-2.9-10.4-3.4c-0.7-0.2-1.5,0.2-1.9,0.9c-0.3,0.5-0.6,1.2-1,2
				C178.1,51.8,178,45.3,185.1,44.5z"/>
		</defs>
		<clipPath id="SVGID_00000116928270079885952660000010381509759964579236_">
			<use xlink:href="#SVGID_00000176723011218679622540000012827383189268214719_"  style="overflow:visible;"/>
		</clipPath>
	</g>
</g>
</svg>
