<?xml version="1.0" encoding="utf-8" ?><!-- created by svgstack.com | Attribution is required. --><svg xmlns="http://www.w3.org/2000/svg" xmlns:xlink="http://www.w3.org/1999/xlink" width="1024" height="1024"><path transform="scale(2 2)" d="M143.5 186.726C145.746 183.342 148.414 180.234 150.828 176.966L196.219 116.114C202.25 108.037 206.823 98.4159 217.867 97.0859C229.328 94.9492 240.568 109.64 235.826 120.092C233.02 126.276 225.757 134.32 221.454 139.964L202.901 164.705C197.44 171.887 191.527 179.139 186.655 186.726L325.213 186.726C314.163 171.491 302.69 156.53 291.31 141.54L283.062 130.565C280.768 127.558 277.834 124.383 276.25 120.938C269.052 105.278 290.536 88.8438 303.978 101.515C306.937 104.304 309.223 107.845 311.67 111.078L324.362 127.89C339.26 147.498 354.378 166.959 369.063 186.726L402.086 186.716C413.976 186.716 430.768 183.836 434.729 198.887C436.081 204.024 435.489 219.786 435.492 225.843C435.503 244.627 422.366 244.946 407.631 244.926C405.182 254.347 403.674 264.091 401.719 273.627L391.589 322.768L379.608 382.243C376.771 397.149 371.466 409.603 354.695 413.648C348.727 415.087 342.086 414.624 335.972 414.622L186.629 414.611C166.672 414.619 144.633 418.222 135.23 394.865C133.367 390.238 132.669 384.916 131.65 380.045L112.535 285.137C109.79 271.72 107.368 258.272 104.248 244.926C83.7088 244.244 76.2209 244.167 76.267 220.877L76.2592 208.584C76.1975 184.616 90.8367 186.72 109.577 186.718L143.5 186.726ZM217.867 106.539C212.343 108.076 209.201 114.552 205.945 118.86L169.977 167.017C165.183 173.486 160.123 179.944 155.783 186.726L165.625 186.726L174.404 186.726C184.176 174.774 192.922 161.861 202.316 149.592L217.392 129.659C221.476 124.36 232.851 114.148 224.05 107.865C222.09 106.465 220.185 106.241 217.867 106.539ZM291.084 106.539C279.078 111.601 286.053 119.163 290.829 125.461L300.468 138.141C312.729 154.253 325.235 170.245 336.991 186.726L350.375 186.726L357.079 186.726C353.816 182.038 350.245 177.563 346.813 172.998L304.574 117.435C301.02 112.813 297.92 105.856 291.084 106.539ZM237.686 196.406L108.957 196.408C89.8443 196.38 85.7408 192.258 85.7443 213.978C85.7455 221.258 82.7871 234.422 93.3359 235.203C99.8958 235.689 106.762 235.292 113.345 235.292L275.375 235.285L404.485 235.291C425.896 235.298 426.263 238.437 426.089 214.483C426.034 206.977 428.576 196.983 418.028 196.379C411.923 196.029 405.579 196.403 399.454 196.405L237.686 196.406ZM114.606 244.926C113.144 246.445 116.943 259.343 117.503 261.968L140.656 376.191C144.596 396.257 146.418 405.339 170.961 405.321L333.167 405.326C358.801 405.338 365.731 404.183 370.884 378.553L397.87 244.926L114.606 244.926Z"/><path transform="scale(2 2)" d="M257.104 370.943C248.15 372.064 251.308 353.541 251.308 347.369L251.313 311.694C251.314 303.548 248.116 279.355 254.785 275.754C260.378 275.495 260.485 278.812 260.569 283.164C260.712 290.589 261.004 366.082 260.225 368.099C259.638 369.618 258.508 370.27 257.104 370.943Z"/><path transform="scale(2 2)" d="M186.655 280.194C187.341 278.281 188.155 277.374 190.043 276.549C198.946 275.218 197.931 290.884 199.173 297.968L206.402 340.607C207.624 347.773 214.301 367.713 207.412 370.943C200.165 372.531 200.483 362.186 199.662 357.528L195.733 334.225C192.684 316.241 189.134 298.264 186.655 280.194Z"/><path transform="scale(2 2)" d="M308.1 370.943C297.224 373.738 304.31 351.075 305.078 346.108L314.315 289.029C315.049 284.336 314.469 278.863 319.272 276.549C329.689 275.618 322.954 294.964 321.907 301.263L312.862 357.32C312.164 361.71 312.554 368.547 308.1 370.943Z"/></svg> 