<?xml version="1.0" encoding="utf-8" ?><!-- created by svgstack.com | Attribution is required. --><svg xmlns="http://www.w3.org/2000/svg" xmlns:xlink="http://www.w3.org/1999/xlink" width="1024" height="1024"><path transform="scale(2 2)" d="M238.456 88.3466C216.644 74.0407 229.828 46.3686 252.711 43.5957C273.728 41.4134 291.055 64.0519 279.572 81.0457C278.274 82.9653 274.156 87.4832 271.554 85.0672C269.262 82.939 273.279 74.3497 273.454 71.1134C274.027 60.5379 264.091 53.9062 254.47 53.4029C245.261 53.4666 237.007 59.5073 234.135 68.3327C231.263 77.1568 234.639 80.9505 238.456 88.3466Z"/><path transform="scale(2 2)" d="M389.984 177.65C387.383 176.776 383.216 158.727 382.223 155.543C371.455 120.998 352.754 76.9594 313.417 69.3459C339.468 67.6 361.297 97.9749 371.855 119.011C377.396 130.051 391.219 165.895 389.984 177.65Z"/><path transform="scale(2 2)" d="M216.431 365.022C196.434 366.297 166.611 362.223 146.467 360.369L118.652 357.864C89.0034 355.043 88.0952 349.07 107.813 329.202C130.879 305.96 129.881 291.573 133.584 262.121C135.146 249.697 137.681 237.388 139.247 224.955C142.892 195.997 144.867 166.008 160.549 140.482C181.704 106.047 213.787 89.9783 252.711 86.2586C297.188 84.2975 335.799 113.201 354.806 151.898C364.427 171.485 366.809 189.771 369.895 211.258L378.792 274.247C381.86 297.023 388.075 311.401 405.685 327.85C410.3 332.16 416.935 334.98 416.916 342.254C416.882 354.841 398.977 355.265 390.113 356.58C361.496 360.829 323.447 363.88 293.98 363.17C295.473 367.74 297.095 372.203 297.475 377.038C299.162 398.521 281.874 418.771 260.284 420.208C255.577 421.449 248.712 420.056 244.14 418.762C220.21 411.988 209.594 388.293 216.431 365.022ZM248.927 97.0071C215.561 97.4694 183.301 117.974 166.871 146.68C152.174 172.356 150.7 198.944 147.056 227.598C145.502 239.814 142.981 251.887 141.362 264.1C136.838 298.219 137.006 310.079 110.677 336.966C108.811 338.872 102.16 344.794 102.336 347.254C102.715 352.554 137.973 351.686 142.256 351.686L214.567 351.685C228.057 351.689 240.469 350.995 253.688 350.716C299.171 350.216 357.357 346.746 401.438 339.463C372.196 319.272 370.563 295.881 365.618 265.52C363.208 250.719 360.326 235.982 358.076 221.15C352.688 185.639 349.749 152.375 322.978 125.554C304.702 107.245 275.1 94.7036 248.927 97.0071ZM223.656 366.644C213.264 403.409 251.308 422.605 275.799 401.357C282.186 394.51 285.73 387.048 285.716 377.593C279.634 376.301 273.437 375.454 267.309 374.404L242.57 370.05C236.284 368.996 229.83 368.21 223.656 366.644Z"/><path transform="scale(2 2)" d="M108.958 187.716C108.68 188.711 108.485 189.317 107.425 189.707L106.887 189.452C104.461 186.521 106.351 179.347 106.834 175.966C110.616 149.521 130.274 92.3051 162.777 88.3466C164.812 88.2406 166.803 88.2577 168.839 88.3466C137.839 89.7492 119.789 137.409 113.545 162.129C111.387 170.671 110.266 179.028 108.958 187.716Z"/><path transform="scale(2 2)" d="M395.278 131.303C390.474 127.548 404.812 114.943 408.823 113.175C409.504 113.333 409.602 113.613 409.433 114.268C408.117 119.386 399.959 128.729 395.278 131.303Z"/><path transform="scale(2 2)" d="M177.198 225.175C175.459 227.112 174.79 222.056 174.663 221.137C170.15 188.612 201.52 129.254 237.442 124.335C240.56 124.273 241.984 127.239 239.899 129.597C237.054 132.813 229.305 136.94 225.439 139.532C203.276 154.39 189.938 180.086 182.869 205.14C181.078 211.485 180.088 218.861 177.368 224.808L177.198 225.175Z"/><path transform="scale(2 2)" d="M417.17 153.468C413.715 153.715 401.041 154.166 398.853 150.707C397.459 148.502 404.989 148.164 405.878 148.122C409.344 148.052 422.341 149.315 424.763 151.631L424.655 151.964C422.616 153.092 419.477 153.169 417.17 153.468Z"/><path transform="scale(2 2)" d="M313.417 462.551C305.846 465.878 322.124 448.734 323.746 446.561C333.118 434.002 342.911 421.345 347.663 406.209C348.689 402.94 348.893 398.2 350.942 395.461C358.408 395.28 349.615 414.832 348.07 417.97C342.299 429.69 324.519 455.705 313.417 462.551Z"/><path transform="scale(2 2)" d="M210.436 465.366C191.435 458.999 161.3 444.304 160.09 420.924C159.733 414.026 162.029 405.237 166.728 400.025C166.195 401.505 165.457 402.935 164.902 404.417C154.613 431.89 181.395 447.561 201.81 459.437C204.44 460.967 213.113 465.621 212.532 465.969L210.436 465.366Z"/><path transform="scale(2 2)" d="M308.707 441.537C308.339 441.682 308.169 441.698 307.784 441.709C307.805 441.6 316.004 433.073 316.986 431.918C321.719 426.357 326.296 420.248 329.564 413.706C331.518 409.793 332.693 404.814 335.34 401.357C338.329 401.661 335.893 408.138 335.407 409.722C331.171 423.512 321.327 434.792 308.707 441.537Z"/><path transform="scale(2 2)" d="M210.436 447.769C194.884 443.833 177.551 431.614 183.102 413.445C183.551 414.054 183.292 415.699 183.349 416.522C184.624 434.741 200.75 438.867 210.621 447.555L210.436 447.769Z"/></svg> 