<?xml version="1.0" encoding="utf-8" ?><!-- created by svgstack.com | Attribution is required. --><svg xmlns="http://www.w3.org/2000/svg" xmlns:xlink="http://www.w3.org/1999/xlink" width="1024" height="1024"><path transform="scale(2 2)" d="M260.703 404.081C255.135 411.041 248.94 400.917 246.185 397.341L231.254 377.624C199.39 335.14 164.561 285.74 145.873 235.688C139.31 218.109 136.314 206.259 138.712 187.693C146.344 128.6 189.567 86.7699 249.442 82.0099C312.079 79.4583 363.826 122.288 372.756 184.497C376.037 207.356 372.674 217.768 364.327 239.103C340.996 298.738 298.926 353.127 260.703 404.081ZM248.482 93.499C209.805 97.9729 179.118 115.854 161.14 151.988C145.218 183.987 146.219 205.826 158.679 237.261C177.265 284.152 208.205 327.032 237.621 367.552C243.556 375.727 249.928 383.561 255.756 391.822C257.026 390.235 258.355 388.756 259.763 387.293C262.387 382.015 266.772 377.475 270.273 372.762C303.686 327.784 340.42 276.52 357.629 223.401C364.537 202.077 364.504 191.749 357.581 169.106C342.916 121.141 298.418 90.3162 248.482 93.499Z"/><path transform="scale(2 2)" d="M233.103 121.322C227.941 122.155 221.422 111.516 238.281 109.337C242.136 109.341 245.595 113.123 243.411 116.928C241.649 119.997 236.284 120.461 233.103 121.322Z"/><path transform="scale(2 2)" d="M171.964 199.121C164.828 199.952 166.045 192.05 166.6 187.51C168.564 171.423 173.916 156.254 183.769 143.303C190.758 134.115 205.199 120.698 216.206 117.263C220.144 117.149 224.061 121.001 220.801 124.712C218.877 126.903 213.028 129.624 210.215 131.499C192.574 143.254 180.189 163.397 176.717 184.158C175.794 189.681 178.09 196.715 171.964 199.121Z"/><path transform="scale(2 2)" d="M258.622 253.738C243.183 253.952 227.772 248.881 216.263 238.357C176.921 202.381 201.059 138.267 253.691 136.127C284.7 134.46 312.605 158.803 314.737 189.901C317.058 223.752 292.42 251.627 258.622 253.738ZM252.554 147.35C239.592 148.862 227.182 154.236 218.892 164.652C192.133 198.278 218.341 245.08 259.763 242.497C301.731 238.984 319.187 185.393 287.165 158.69C277.79 150.872 264.805 146.208 252.554 147.35Z"/><path transform="scale(2 2)" d="M330.609 354.403C344.827 358.73 370.827 367.375 373.996 384.519C378.961 411.37 326.29 422.362 308.319 425.322C267.255 432.088 185.86 432.296 149.541 405.961C139.336 398.561 134.048 386.487 142.303 375.505C151.965 362.65 180.459 352.693 197.044 350.375C198.53 351.524 202.268 358.779 203.333 360.788C189.434 362.025 141.515 375.988 150.702 391.322C156.987 401.812 180.507 408.487 191.93 411.24C232.011 420.9 287.913 420.745 327.758 409.405C399.196 389.076 345.829 368.715 307.909 360.788C309.897 357.192 312.326 353.671 314.779 350.375C320.013 351.83 325.348 353.03 330.609 354.403Z"/></svg> 