<?xml version="1.0" encoding="utf-8" ?><!-- created by svgstack.com | Attribution is required. --><svg xmlns="http://www.w3.org/2000/svg" xmlns:xlink="http://www.w3.org/1999/xlink" width="1024" height="1024"><path transform="scale(2 2)" d="M94.7447 277.166C79.5287 259.036 69.9374 245.053 67.6074 219.913C62.0348 159.786 114.086 117.77 168.275 106.546C176.511 104.841 184.814 103.995 193.176 103.225C244.963 101.639 300.289 121.322 325.636 169.595C327.068 172.322 328.312 175.168 329.856 177.831L329.996 178.068C334.75 178.483 339.482 179.504 344.135 180.532C395.635 191.913 443.467 229.44 445.207 285.759C446.037 312.608 435.173 332.728 417.491 351.487C416.65 365.073 420.723 379.367 429.033 390.229C431.863 393.928 437.144 398.789 432.156 403.397C428.068 407.173 417.122 407.032 411.934 406.793C393.5 405.945 377.777 395.843 365.697 382.541C351.689 388.013 337.504 390.691 322.571 392.005C316.525 391.88 310.52 392.082 304.466 391.776C258.675 389.463 209.391 362.317 191.519 318.793C174.172 318.111 162.1 315.064 145.804 311.411C131.054 322.368 122.817 332.21 101.751 333.251C94.1762 333.626 75.2048 333.843 79.2999 321.131C80.3311 317.93 83.3387 315.706 85.267 313.042C93.3709 301.848 94.8314 290.517 94.7447 277.166ZM195.379 113.732C188.731 114.3 182.097 114.812 175.517 115.962C125.176 124.759 72.9849 161.904 77.8428 218.444C79.2416 234.724 85.8031 249.772 95.9246 262.509C102.977 271.384 105.323 269.311 105.276 281.358C105.21 298.415 100.849 309.186 90.7641 322.755C109.018 323.543 120.961 319.384 134.52 306.972C143.093 299.123 141.34 298.954 152.327 302.102C158.743 303.941 166.356 306.261 173.059 306.01C180.881 308.352 189.595 308.586 197.724 308.61C249.09 308.765 306.468 287.176 322.428 233.538C329.764 208.883 323.942 182.731 308.884 162.251C283.44 127.641 237.221 111.75 195.379 113.732ZM333.386 189.221C338.213 211.966 336.312 223.333 329.996 244.55L364.828 244.561C395.318 244.542 396.339 246.087 396.336 279.247L396.376 318.252C396.365 328.764 387.353 337.559 376.768 332.249C370.876 329.293 362.262 320.65 356.047 316.482L343.018 316.507C339.456 316.515 330.066 317.327 330.12 311.625C330.184 304.823 337.609 306.016 342.118 306.025C346.489 306.033 350.902 305.863 355.267 306.074C367.304 306.655 373.692 319.537 382.688 323.348C388.626 319.866 385.913 305.654 385.914 298.551L385.909 276.333C385.904 270.512 388.122 256.379 379.895 255.274C375.152 254.637 366.726 255.099 361.589 255.1L324.451 255.105C308.094 291.749 258.904 314.555 221.125 318.164C215.265 318.534 209.252 319.132 203.383 318.793C205.308 324.23 208.406 328.826 211.836 333.412C243.564 375.828 307.062 392.274 356.459 374.857C371.558 369.533 366.948 368.73 377.087 379.097C388.904 391.181 403.571 397.109 420.462 396.237C412.118 383.673 408.16 372.617 407.083 357.498C405.947 341.555 409.226 346.779 417.967 335.229C438.709 307.825 440.253 273.76 422.734 244.315C402.987 211.128 369.146 197.101 333.386 189.221Z"/><path transform="scale(2 2)" d="M145.804 233.729C116.286 235.498 114.683 197.695 140.342 194.335C165.737 191.438 171.822 229.306 145.804 233.729ZM142.789 204.56C127.795 206.081 131.01 224.988 142.789 223.302C157.873 222.261 152.473 203.043 142.789 204.56Z"/><path transform="scale(2 2)" d="M203.383 233.729C178.067 235.869 172.269 198.446 198.932 194.335C223.806 191.617 231.244 228.59 203.383 233.729ZM200.114 204.56C187.202 206.633 190.238 225.023 203.383 223.302C214.694 219.841 212.785 203.589 200.114 204.56Z"/><path transform="scale(2 2)" d="M262.947 233.729C235.256 234.872 232.49 197.725 258.8 194.335C282.576 191.626 289.837 229.255 262.947 233.729ZM258.8 204.56C245.443 209.128 250.676 225.465 262.947 223.302C274.12 218.844 271.251 204.547 258.8 204.56Z"/><path transform="scale(2 2)" d="M314.18 316.482C310.316 316.476 302.265 317.442 299.377 314.969C295.119 311.322 298.747 306.376 303.404 306.01C307.193 305.733 314.671 304.925 317.835 307.162C322.307 310.322 318.545 315.932 314.18 316.482Z"/></svg> 