<?xml version="1.0" encoding="utf-8" ?><!-- created by svgstack.com | Attribution is required. --><svg xmlns="http://www.w3.org/2000/svg" xmlns:xlink="http://www.w3.org/1999/xlink" width="1024" height="1024"><path transform="scale(2 2)" d="M306.482 180.438C296.012 156.802 294.731 136.402 311.915 114.459C322.122 101.424 336.602 94.2491 352.869 92.2379C357.546 92.1023 362.261 92.0969 366.908 92.6913C399.174 96.8187 421.743 127.467 417.453 159.373C414.131 184.074 387.961 219.663 373.85 240.445C363.019 256.397 362.624 266.239 349.078 247.472C345.65 242.723 342.22 237.976 338.921 233.137C329.665 219.084 319.432 206.023 311.577 191L277.36 191.003C272.883 191.007 265.908 191.463 261.793 190.909C257.424 190.322 254.271 185.657 257.992 181.979C261.29 178.718 270.453 180.449 274.619 180.448L306.482 180.438ZM354.125 103.252C328.209 106.323 306.582 129.475 309.956 155.91C312.529 176.068 343.738 224.057 359.387 242.716L360.819 240.256C378.281 214.308 412.02 172.17 406.092 141.362C401.232 116.099 378.719 102.455 354.125 103.252Z"/><path transform="scale(2 2)" d="M361.664 177.243C323.155 179.197 323.959 126.909 356.489 125.265C387.903 121.172 396.899 171.314 361.664 177.243ZM356.489 134.796C334.501 139.087 338.304 170.107 361.664 167.434C383.024 162.297 376.882 132.157 356.489 134.796Z"/><path transform="scale(2 2)" d="M240.162 199.904C229.076 199.571 237.239 187.41 244.904 185.299C256.027 185.9 247.017 198.643 240.162 199.904Z"/><path transform="scale(2 2)" d="M234.448 223.803C226.019 223.894 223.672 208.833 231.125 206.279C236.423 205.987 235.966 209.845 236.908 213.584C238.07 218.199 240.165 221.707 234.448 223.803Z"/><path transform="scale(2 2)" d="M256.146 234.009C248.959 234.289 237.677 225.07 248.698 220.728C256.23 221.819 266.905 229.954 256.146 234.009Z"/><path transform="scale(2 2)" d="M169.092 409.875C166.733 413.522 162.526 422.212 157.184 417.155C154.211 414.34 149.434 405.725 146.717 401.778C132.092 380.531 93.8337 324.496 93.2211 298.584C92.3653 262.39 119.661 229.499 156.595 228.737C197.52 223.459 236.9 269.688 226.799 309.399C245.457 306.124 238.599 323.273 222.474 319.077C220.896 324.376 218.062 329.514 215.601 334.455C202.484 360.783 185.606 385.619 169.092 409.875ZM157.936 239.625C125.556 241.091 102.628 268.729 104.29 300.543C105.382 321.431 148.644 385.212 160.608 402.35L162.243 399.894C180.31 373.895 199.793 344.596 212.121 315.409C216.751 304.449 218.355 300.411 216.186 288.398C211.155 260.537 187.138 237.839 157.936 239.625Z"/><path transform="scale(2 2)" d="M278.385 242.716C270.783 243.213 259.392 235.396 269.786 230.241C276.439 230.655 287.105 236.723 278.385 242.716Z"/><path transform="scale(2 2)" d="M299.188 251.634C292.582 252.698 280.636 243.537 290.469 239.625C297.505 238.239 309.199 246.726 299.188 251.634Z"/><path transform="scale(2 2)" d="M320.822 261.388C315.754 262.395 301.934 253.484 312.649 247.741C319.144 247.612 330.422 256.454 320.822 261.388Z"/><path transform="scale(2 2)" d="M164.561 325.713C123.566 330.247 117.357 270.534 156.595 265.337C164.008 264.159 172.068 266.576 178.018 271C199.664 287.093 190.877 321.969 164.561 325.713ZM157.936 274.577C128.541 278.848 135.887 320.028 163.271 316.95C191.651 311.635 183.636 270.684 157.936 274.577Z"/><path transform="scale(2 2)" d="M333.449 280.565C324.487 281.65 323.337 267.828 330.338 265.337C338.027 265.08 340.643 277.783 333.449 280.565Z"/><path transform="scale(2 2)" d="M194.139 397.774C189.16 397.866 185.506 394.568 188.258 389.873C190.882 385.397 216.651 383.48 222.945 382.595L323.861 367.963C346.073 364.882 365.5 357.951 367.433 330.678C367.921 323.791 366.156 316.395 365.188 309.577L361.072 280.062C360.306 274.597 358.032 267.877 365.173 266.301C372.871 266.672 371.905 279.262 372.78 285.373L377.415 317.414C379.537 332.796 378.029 345.657 368.306 358.37C355.939 374.54 342.3 376.593 323.577 379.136L300.485 382.369C265.07 387.646 229.63 393.033 194.139 397.774Z"/><path transform="scale(2 2)" d="M319.432 301.411C308.363 300.157 316.097 288.721 323.631 286.51C332.735 286.433 328.96 297.918 319.432 301.411Z"/><path transform="scale(2 2)" d="M295.285 308.164C291.5 307.353 289.072 303.303 291.886 299.905C294.116 297.214 300.01 297.263 303.283 296.862C305.875 297.254 307.382 299.332 307.668 301.895C308.308 307.648 298.975 307.783 295.285 308.164Z"/><path transform="scale(2 2)" d="M274.313 311.75L273.748 311.798C268.749 312.263 260.7 302.149 278.385 301.411C282.529 299.901 291.309 309.597 274.313 311.75Z"/><path transform="scale(2 2)" d="M251.972 315.594C245.611 316.651 237.605 307.354 254.48 304.834C260.328 303.987 262.924 309.086 259.642 313.498C257.289 314.746 254.56 315.096 251.972 315.594Z"/></svg> 