<?xml version="1.0" encoding="UTF-8"?>
<svg id="Layer_2" xmlns="http://www.w3.org/2000/svg" version="1.1" viewBox="0 0 339.2 74.8">
  <!-- Generator: Adobe Illustrator 29.0.1, SVG Export Plug-In . SVG Version: 2.1.0 Build 192)  -->
  <defs>
    <style>
      .st0 {
        fill: #231f20;
      }

      .st1 {
        fill: #1d1d1a;
      }

      .st2 {
        isolation: isolate;
      }
    </style>
  </defs>
  <g id="Layer_1-2">
    <path class="st1" d="M47.7,49.7c-.2,1.6-1.6,4.6-5.4,4.6s-1.9-.2-2.7-.6c-1.1-.6-1.9-.6-3,0-.8.4-1.7.6-2.7.6-3.8,0-5.2-3-5.4-4.6,0-.3,0-.6.2-.9.2-.3.5-.4.8-.5.7,0,1.3.5,1.4,1.1,0,0,.4,2.5,3,2.5s1.9-.4,2.5-1.2c.1-.2.2-.4.3-.6-.5-.3-1.2-.9-2.1-1.7-1.2-1.1-2.2-2.1-2.2-2.1-.1-.1-.2-.5-.2-.6,0-.2.2-.5.4-.5,0,0,2.8-1.4,5.7-1.4s5.3,1.3,5.4,1.4c.2,0,.3.4.4.5,0,.2,0,.5-.2.6,0,.1-1.1,1.1-2.2,2.1-.9.8-1.6,1.4-2.1,1.7.3.8,1,1.8,2.8,1.8s1.9-.4,2.5-1.2c.1-.2.2-.4.3-.6,0-.1,0-.3.1-.4.1-.4.2-.8.5-1,.2-.2.5-.3.8-.3h.2c.7,0,1.1.7,1.1,1.3h0ZM69.4,32.7c-.2.1-.4.3-.6.4,0,0-.1.8,0,2,0,.8,0,1.5,0,2.3,0,17-13.8,30.8-30.8,30.8S7.3,54.4,7.3,37.4s0-1.6,0-2.4c.1-1.4,0-2,0-2.2h0C.1,27.3-2.2,18.1,2.3,12.1c2.3-3,6-4.8,10.2-4.8s5,.6,7.4,1.7c1.7.8,4.3.9,5.8.2,3.9-1.7,8.1-2.6,12.4-2.6s8.7.9,12.7,2.7c1.6.7,4.1.6,5.8-.2,2.5-1.2,5.1-1.8,7.6-1.8,4.2,0,8,1.7,10.2,4.8,4.4,5.9,2.2,15.2-5.1,20.6h0ZM64.8,37.4c0-14.7-12-26.6-26.6-26.6s-26.6,12-26.6,26.6,12,26.6,26.6,26.6,26.6-12,26.6-26.6ZM35.3,37.4c.9-2.2,1-4.6.4-6.6-.6-2.1-2-3.7-3.8-4.4-.7-.3-1.5-.4-2.2-.4-3.2,0-6.4,2.5-7.9,6.1-1.9,4.6-.3,9.6,3.4,11.1.7.3,1.5.4,2.2.4,3.2,0,6.4-2.5,7.8-6.1ZM44.8,26.3c-2.6,1-4.2,3.9-4.2,7.3,0,2.1,1.4,5.4,2.8,7,1.6,1.8,3.8,2.9,5.9,2.9s1.5-.1,2.2-.4c2.6-1,4.2-3.9,4.2-7.3,0-2.1-1.4-5.4-2.8-7-2.2-2.5-5.5-3.5-8.1-2.5h0Z"/>
    <g class="st2">
      <g class="st2">
        <path class="st0" d="M81.7,51c1.3-1.7,3.8-1.9,5.4-.6,1.9,1.6,5.1,3.2,7.9,3.2,1.9,0,3.7-.6,4.9-1.4,1-.9,1.3-1.6,1.3-2.2s0-.5-.2-.7c0-.2-.4-.5-.9-.9-1-.7-3.2-1.5-5.8-2h0c-2.2-.4-4.4-1-6.3-1.9-1.9-.9-3.7-2.2-5-4.2-.8-1.3-1.2-2.9-1.2-4.5,0-3.3,1.9-6.1,4.3-7.9,2.5-1.7,5.5-2.7,8.9-2.7,5,0,8.5,2.4,10.8,4,1.7,1.2,2.2,3.5,1.2,5.3-1.2,1.7-3.5,2.2-5.3,1-2.3-1.5-4.3-2.7-6.6-2.7s-3.4.6-4.3,1.3c-.9.6-1.2,1.3-1.2,1.7s0,.4.1.6c0,.1.3.4.8.7.9.6,2.8,1.3,5.3,1.7h0c0,0,0,0,0,0,2.4.4,4.6,1.1,6.7,2.1,1.9.9,3.9,2.2,5.1,4.3.9,1.4,1.4,3.1,1.4,4.8,0,3.5-1.9,6.5-4.5,8.4-2.6,1.8-5.8,2.9-9.4,2.9-5.6,0-9.9-2.7-12.8-5-1.6-1.3-1.8-3.7-.5-5.3Z"/>
        <path class="st0" d="M145.4,40.2v17.2c0,2.1-1.7,3.8-3.7,3.8s-3.8-1.7-3.8-3.8v-17.2c0-4-3.4-7.3-7.5-7.3s-7.2,3.2-7.2,7.3v17.2c0,.2,0,.4-.1.7-.4,1.7-1.9,3.1-3.8,3.1s-3.8-1.7-3.8-3.8v-28.4c0-2.1,1.7-3.8,3.8-3.8s2.9.9,3.5,2.2c2.2-1.4,4.8-2.2,7.6-2.2,8.4,0,15.1,6.8,15.1,15Z"/>
        <path class="st0" d="M170.2,61.3c-8.2,0-15-6.8-15-15v-17.2c0-2,1.7-3.8,3.8-3.8s3.8,1.8,3.8,3.8v17.2c0,4.1,3.2,7.4,7.4,7.4s7.5-3.2,7.6-7.4v-17.2c0-2,1.6-3.8,3.7-3.8s3.9,1.8,3.9,3.8v17.2c0,8.2-6.9,15-15.2,15Z"/>
        <path class="st0" d="M228.7,43.5v13.4c0,9.4-7.7,17.3-17.3,17.3s-5.3-.6-7.6-1.8c-1.9-.9-2.7-3.2-1.7-5.2.9-1.9,3.2-2.7,5.2-1.8,1.2.6,2.6,1,4.1,1,4.7,0,8.5-3.3,9.4-7.7-2.6,1.8-5.9,2.9-9.4,2.9s-9.2-2.1-12.3-5.5c-3.1-3.2-5-7.6-5-12.7s1.9-9.4,5-12.8c3.1-3.2,7.5-5.3,12.3-5.3s7.1,1.2,9.7,3c.4-1.7,1.9-3,3.8-3s3.8,1.7,3.8,3.8v14.3h0ZM221,43.4c0-2.9-1.2-5.6-2.7-7.4-1.9-2-4.1-3.1-6.8-3.1s-4.9,1.1-6.6,3.1c-1.7,1.7-2.9,4.5-2.9,7.4s1.2,5.8,2.9,7.4c1.7,1.9,4.1,3,6.6,3s5-1,6.8-3c1.6-1.7,2.7-4.4,2.7-7.4Z"/>
        <path class="st0" d="M272.7,43.5v13.4c0,9.4-7.7,17.3-17.3,17.3s-5.3-.6-7.6-1.8c-1.9-.9-2.7-3.2-1.7-5.2.9-1.9,3.2-2.7,5.2-1.8,1.2.6,2.6,1,4.1,1,4.7,0,8.5-3.3,9.4-7.7-2.6,1.8-5.9,2.9-9.4,2.9s-9.2-2.1-12.3-5.5c-3.1-3.2-5-7.6-5-12.7s1.9-9.4,5-12.8c3.1-3.2,7.5-5.3,12.3-5.3s7.1,1.2,9.7,3c.4-1.7,1.9-3,3.8-3s3.8,1.7,3.8,3.8v14.3h0ZM264.9,43.4c0-2.9-1.2-5.6-2.7-7.4-1.9-2-4.1-3.1-6.8-3.1s-4.9,1.1-6.6,3.1c-1.7,1.7-2.9,4.5-2.9,7.4s1.2,5.8,2.9,7.4c1.7,1.9,4.1,3,6.6,3s5-1,6.8-3c1.6-1.7,2.7-4.4,2.7-7.4Z"/>
      </g>
      <g class="st2">
        <path class="st0" d="M288.9,10.8c2.2,0,4,1.8,4,4v42.5c0,2.2-1.8,4-4,4s-4-1.8-4-4V14.8c0-2.2,1.8-4,4-4Z"/>
      </g>
      <g class="st2">
        <path class="st0" d="M299.5,43.2c0-9.8,7.7-18,17.6-18s16.8,7,17.4,16.7v.4c0,.1,0,.5,0,.6-.2,1.7-1.7,2.9-3.7,2.9h-22.9c.4,1.7,1.2,3.5,2.5,4.8,1.5,1.7,4.4,3,6.9,3.2,2.6.2,5.7-.4,7.5-1.8,1.5-1.6,4.5-1.4,5.4-.2.9,1,1.7,3.2,0,4.7-3.5,3.2-7.8,4.8-12.9,4.8-9.9,0-17.5-8.2-17.6-18ZM307.3,39.7h20.4c-.7-2.9-4.4-7.1-10.7-7.6-6.1.3-9.2,4.7-9.7,7.6Z"/>
      </g>
    </g>
  </g>
</svg>