<?xml version="1.0" encoding="UTF-8"?>
<svg id="Layer_2" data-name="Layer 2" xmlns="http://www.w3.org/2000/svg" viewBox="0 0 339.19 74.81">
  <defs>
    <style>
      .cls-1, .cls-2 {
        fill: #fff;
      }

      .cls-3 {
        letter-spacing: -.05em;
      }

      .cls-4 {
        letter-spacing: 0em;
      }

      .cls-2 {
        font-family: QuicksandBold-Regular, Quicksand;
        font-size: 72.07px;
      }
    </style>
  </defs>
  <g id="Layer_1-2" data-name="Layer 1">
    <path class="cls-1" d="M47.71,49.65c-.19,1.6-1.57,4.61-5.39,4.61-1,0-1.91-.21-2.69-.63-1.06-.56-1.92-.56-2.97,0-.78.42-1.69.63-2.69.63-3.83,0-5.2-3.01-5.39-4.6-.04-.32.05-.64.25-.9.2-.26.49-.42.82-.46.7-.02,1.29.45,1.36,1.07.01.1.35,2.45,2.96,2.45,1.12,0,1.92-.39,2.45-1.18.13-.19.24-.41.33-.64-.51-.33-1.2-.86-2.14-1.72-1.18-1.06-2.19-2.11-2.2-2.12-.13-.14-.22-.46-.19-.64.04-.24.2-.45.42-.55.1-.05,2.79-1.36,5.68-1.36s5.27,1.33,5.37,1.39c.16.09.34.36.37.54.03.24-.04.46-.2.63-.1.11-1.09,1.12-2.19,2.12-.94.85-1.63,1.38-2.14,1.71.29.76,1.01,1.82,2.78,1.82,1.12,0,1.92-.39,2.45-1.18.13-.19.23-.4.32-.62.05-.13.09-.29.13-.44.11-.41.22-.8.52-1.03.21-.16.48-.26.75-.26.03,0,.13,0,.16,0,.66.08,1.14.69,1.06,1.35ZM69.44,32.7c-.19.13-.36.26-.55.38,0,.05-.13.77-.03,2.04.06.75.09,1.51.09,2.28,0,16.99-13.82,30.82-30.82,30.82S7.33,54.39,7.33,37.4c0-.82.03-1.63.09-2.43.11-1.4.1-1.95.08-2.15l-.08-.05C.11,27.3-2.17,18.07,2.26,12.13c2.26-3.03,5.99-4.76,10.24-4.76,2.46,0,5.01.58,7.39,1.68,1.66.77,4.28.85,5.84.16,3.92-1.73,8.09-2.61,12.4-2.61s8.7.92,12.71,2.74c1.56.71,4.14.62,5.79-.17,2.45-1.18,5.09-1.8,7.64-1.8,4.25,0,7.98,1.74,10.24,4.76,4.43,5.94,2.15,15.17-5.08,20.57ZM64.77,37.4c0-14.69-11.95-26.64-26.64-26.64s-26.64,11.95-26.64,26.64,11.95,26.64,26.64,26.64c14.69,0,26.64-11.95,26.64-26.64ZM35.31,37.42c.89-2.22,1.04-4.58.43-6.65-.62-2.12-1.97-3.7-3.79-4.42-.7-.28-1.45-.42-2.21-.42-3.23,0-6.39,2.46-7.85,6.13-1.85,4.63-.34,9.59,3.36,11.07.7.28,1.45.42,2.21.42,3.23,0,6.39-2.46,7.85-6.13ZM44.82,26.34c-2.63,1.05-4.25,3.93-4.15,7.35.07,2.12,1.37,5.38,2.79,6.96,1.64,1.84,3.78,2.89,5.86,2.89.77,0,1.51-.14,2.21-.42,2.63-1.05,4.25-3.93,4.15-7.35-.07-2.13-1.37-5.38-2.79-6.97-2.25-2.51-5.47-3.51-8.07-2.47Z"/>
    <text class="cls-2" transform="translate(76.77 61.26)"><tspan class="cls-3" x="0" y="0">snugg</tspan><tspan class="cls-4" x="200.94" y="0">l</tspan><tspan class="cls-3" x="218.52" y="0">e</tspan></text>
  </g>
</svg>